<svg width="88" height="44" viewBox="0 0 88 44" fill="none" xmlns="http://www.w3.org/2000/svg">
<path fill-rule="evenodd" clip-rule="evenodd" d="M28.1528 28.4099L29.2511 25.8579C30.4373 26.7449 32.0178 27.2061 33.5772 27.2061C34.7282 27.2061 35.4568 26.7625 35.4568 26.0902C35.4392 24.2105 28.5612 25.6819 28.5084 20.9686C28.4908 18.575 30.6168 16.7306 33.63 16.7306C35.4216 16.7306 37.2098 17.1741 38.4876 18.1843L37.4597 20.7891C36.2911 20.0429 34.8373 19.5113 33.454 19.5113C32.5141 19.5113 31.8946 19.9549 31.8946 20.5216C31.9122 22.3661 38.8431 21.3558 38.9135 25.8579C38.9135 28.3043 36.8402 30.0256 33.8623 30.0256C31.6799 30.0221 29.677 29.5081 28.1528 28.4099ZM70.326 24.9357C69.7768 25.8931 68.749 26.5478 67.5592 26.5478C65.8028 26.5478 64.3877 25.1293 64.3877 23.3763C64.3877 21.6233 65.8063 20.2048 67.5592 20.2048C68.7455 20.2048 69.7768 20.8595 70.326 21.8169L73.3567 20.1344C72.2232 18.1139 70.0408 16.7306 67.5592 16.7306C63.8879 16.7306 60.91 19.7085 60.91 23.3798C60.91 27.0512 63.8879 30.0291 67.5592 30.0291C70.0584 30.0291 72.2232 28.6633 73.3567 26.6253L70.326 24.9357ZM40.4376 11.2147H44.2322V29.7757H40.4376V11.2147ZM74.8456 11.2147V29.7757H78.6402V24.207L83.1423 29.7757H87.9999L82.2728 23.1616L87.5739 16.991H82.9275L78.6367 22.1126V11.2147H74.8456Z" fill="black"/>
<path d="M55.5067 24.9709C54.9576 25.8755 53.8242 26.5478 52.5464 26.5478C50.7899 26.5478 49.3749 25.1293 49.3749 23.3763C49.3749 21.6234 50.7934 20.2048 52.5464 20.2048C53.8242 20.2048 54.9576 20.9123 55.5067 21.8346V24.9709ZM55.5067 16.9946V18.5011C54.8872 17.4557 53.3454 16.7271 51.7298 16.7271C48.3963 16.7271 45.7739 19.6698 45.7739 23.3587C45.7739 27.0477 48.3963 30.0256 51.7298 30.0256C53.3419 30.0256 54.8837 29.3005 55.5067 28.2515V29.7581H59.3013V16.9946H55.5067Z" fill="black"/>
<path fill-rule="evenodd" clip-rule="evenodd" d="M4.69918 24.9534C4.69918 26.2487 3.65374 27.2942 2.35838 27.2942C1.06302 27.2942 0.0175781 26.2452 0.0175781 24.9534C0.0175781 23.6615 1.06302 22.6125 2.35838 22.6125H4.69918V24.9534ZM5.86782 24.9534C5.86782 23.658 6.91326 22.6125 8.20862 22.6125C9.50398 22.6125 10.5494 23.658 10.5494 24.9534V30.8036C10.5494 32.099 9.50398 33.1444 8.20862 33.1444C6.91326 33.1444 5.86782 32.099 5.86782 30.8036V24.9534Z" fill="#E01E5A"/>
<path fill-rule="evenodd" clip-rule="evenodd" d="M8.20864 15.5584C6.91328 15.5584 5.86784 14.513 5.86784 13.2176C5.86784 11.9223 6.91328 10.8768 8.20864 10.8768C9.504 10.8768 10.5494 11.9223 10.5494 13.2176V15.5584H8.20864ZM8.20864 16.7447C9.504 16.7447 10.5494 17.7901 10.5494 19.0855C10.5494 20.3809 9.504 21.4263 8.20864 21.4263H2.3408C1.04544 21.4263 0 20.3773 0 19.0855C0 17.7936 1.04544 16.7447 2.3408 16.7447H8.20864Z" fill="#36C5F0"/>
<path fill-rule="evenodd" clip-rule="evenodd" d="M17.5861 19.0855C17.5861 17.7901 18.6315 16.7447 19.9269 16.7447C21.2222 16.7447 22.2677 17.7901 22.2677 19.0855C22.2677 20.3809 21.2222 21.4263 19.9269 21.4263H17.5861V19.0855ZM16.4174 19.0855C16.4174 20.3809 15.372 21.4263 14.0766 21.4263C12.7813 21.4263 11.7358 20.3809 11.7358 19.0855V13.2176C11.7358 11.9223 12.7813 10.8768 14.0766 10.8768C15.372 10.8768 16.4174 11.9223 16.4174 13.2176V19.0855Z" fill="#2EB67D"/>
<path fill-rule="evenodd" clip-rule="evenodd" d="M14.0766 28.4628C15.372 28.4628 16.4174 29.5082 16.4174 30.8036C16.4174 32.099 15.372 33.1444 14.0766 33.1444C12.7813 33.1444 11.7358 32.099 11.7358 30.8036V28.4628H14.0766ZM14.0766 27.2942C12.7813 27.2942 11.7358 26.2487 11.7358 24.9534C11.7358 23.658 12.7813 22.6125 14.0766 22.6125H19.9445C21.2398 22.6125 22.2853 23.658 22.2853 24.9534C22.2853 26.2487 21.2398 27.2942 19.9445 27.2942H14.0766Z" fill="#ECB22E"/>
</svg>
