<svg width="64" height="64" viewBox="0 0 64 64" fill="none" xmlns="http://www.w3.org/2000/svg">
<path d="M61.3333 47.7599C61.3867 49.7599 60.8533 51.6533 59.8933 53.28C59.36 54.24 58.64 55.12 57.84 55.84C56 57.5467 53.5733 58.5867 50.88 58.6667C46.9866 58.7467 43.5467 56.7467 41.6533 53.68C40.64 52.1067 40.0267 50.2134 40 48.2134C39.92 44.8534 41.4133 41.8133 43.8133 39.8133C45.6267 38.32 47.92 37.3867 50.4267 37.3334C56.32 37.2 61.2 41.8666 61.3333 47.7599Z" stroke="#474747" stroke-width="1.5" stroke-miterlimit="10" stroke-linecap="round" stroke-linejoin="round"/>
<path d="M46.5067 48.0801L49.2001 50.64L54.7734 45.2533" stroke="#474747" stroke-width="1.5" stroke-linecap="round" stroke-linejoin="round"/>
<path d="M8.45337 19.8401L32 33.4667L55.3866 19.92" stroke="#474747" stroke-width="1.5" stroke-linecap="round" stroke-linejoin="round"/>
<path d="M32 57.6267V33.4401" stroke="#474747" stroke-width="1.5" stroke-linecap="round" stroke-linejoin="round"/>
<path d="M57.6267 24.4534V39.5468C57.6267 39.6801 57.6267 39.7867 57.6001 39.92C55.7334 38.2933 53.3334 37.3334 50.6667 37.3334C48.16 37.3334 45.84 38.2134 44 39.6801C41.5467 41.6268 40 44.6401 40 48.0001C40 50.0001 40.56 51.8934 41.5467 53.4934C41.7867 53.9201 42.08 54.3201 42.4 54.6935L37.5201 57.3868C34.4801 59.0935 29.52 59.0935 26.48 57.3868L12.24 49.4934C9.01336 47.7068 6.37341 43.2268 6.37341 39.5468V24.4534C6.37341 20.7734 9.01336 16.2934 12.24 14.5068L26.48 6.61337C29.52 4.90671 34.4801 4.90671 37.5201 6.61337L51.76 14.5068C54.9867 16.2934 57.6267 20.7734 57.6267 24.4534Z" stroke="#474747" stroke-width="1.5" stroke-linecap="round" stroke-linejoin="round"/>
</svg>
