<svg width="88" height="44" viewBox="0 0 88 44" fill="none" xmlns="http://www.w3.org/2000/svg">
<path d="M36.883 16.7965C35.294 16.7965 33.4869 17.5331 32.3828 19.0077L32.3835 19.0049L32.3828 19.0056L32.3835 17.028H28.5936V30.8294H32.3828V22.9763C32.3828 21.5629 33.4786 20.0603 35.5077 20.0603C37.0757 20.0603 38.6985 21.1512 38.6985 22.9763V30.8294H42.4884V22.274C42.4884 19.0996 40.2172 16.7965 36.883 16.7965ZM69.424 17.0287L65.9979 26.4298L62.5717 17.0287H58.2425L63.9211 30.8257H68.074L73.7525 17.0287H69.424ZM17.2795 21.1864C17.9248 20.3197 18.9529 19.8109 20.1945 19.8109C21.5602 19.8109 22.5963 20.5908 23.1319 21.7421L16.5108 24.4892C16.33 23.0794 16.6907 21.9768 17.2795 21.1864ZM24.5604 26.5862C22.9653 27.7667 22.054 28.0483 20.5995 28.0483C19.2905 28.0483 18.2656 27.6419 17.5431 26.9292L27.232 22.9098C27.0204 21.412 26.4519 20.0739 25.5772 19.0564C24.3042 17.578 22.4199 16.7958 20.1257 16.7958C15.9586 16.7958 12.8164 19.8699 12.8164 23.9304C12.8164 28.0961 15.966 31.0641 20.5435 31.0641C23.1081 31.0641 25.7303 29.8486 26.957 28.4285L24.5604 26.5862ZM12.4551 27.3496H3.8416V12.9005H0V30.8294H12.4551V27.3496ZM80.5577 20.0435C78.4412 20.0435 76.9044 21.6474 76.9044 23.929C76.9044 26.1075 78.5323 27.8145 80.6085 27.8145C82.7257 27.8145 84.2617 26.1665 84.2617 23.929C84.2617 21.7505 82.6345 20.0435 80.5577 20.0435ZM80.5577 31.0621C76.413 31.0621 73.1653 27.9743 73.1653 23.929C73.1653 19.929 76.4354 16.7958 80.6085 16.7958C84.7533 16.7958 88 19.8835 88 23.929C88 27.9281 84.7307 31.062 80.5577 31.062V31.0621ZM51.3792 20.0435C49.2628 20.0435 47.7268 21.6474 47.7268 23.929C47.7268 26.1075 49.354 27.8145 51.4308 27.8145C53.5472 27.8145 55.0832 26.1665 55.0832 23.929C55.0832 21.7505 53.456 20.0435 51.3792 20.0435ZM51.3792 31.0621C47.2345 31.0621 43.9877 27.9743 43.9877 23.929C43.9877 19.929 47.2569 16.7958 51.4308 16.7958C55.5748 16.7958 58.8222 19.8835 58.8222 23.929C58.8222 27.9281 55.5524 31.062 51.3792 31.062" fill="#E60012"/>
</svg>
