<svg width="88" height="44" viewBox="0 0 88 44" fill="none" xmlns="http://www.w3.org/2000/svg">
<path fill-rule="evenodd" clip-rule="evenodd" d="M24.9981 12.7624C26.208 13.0884 27.159 14.0393 27.4805 15.2448C28.0654 17.4325 28.0654 22 28.0654 22C28.0654 22 28.0654 26.5674 27.4805 28.7551C27.1545 29.965 26.2036 30.916 24.9981 31.2375C22.8104 31.8224 14.0327 31.8224 14.0327 31.8224C14.0327 31.8224 5.25951 31.8224 3.06731 31.2375C1.85739 30.9115 0.90637 29.9606 0.584941 28.7551C0 26.5674 0 21.9999 0 21.9999C0 21.9999 0 17.4325 0.584941 15.2448C0.91087 14.0349 1.86189 13.0839 3.06731 12.7624C5.25951 12.1775 14.0327 12.1775 14.0327 12.1775C14.0327 12.1775 22.8104 12.1775 24.9981 12.7624ZM18.5193 21.9999L11.2284 26.2103V17.7897L18.5193 21.9999Z" fill="#FF0000"/>
<path fill-rule="evenodd" clip-rule="evenodd" d="M40.7356 30.0496C40.1819 29.6746 39.7846 29.0942 39.5525 28.304C39.3202 27.5137 39.1996 26.4645 39.1996 25.1518V23.3659C39.1996 22.0399 39.3336 20.9773 39.6015 20.1735C39.8694 19.37 40.2891 18.7851 40.8561 18.419C41.4231 18.0529 42.1688 17.8654 43.0929 17.8654C44.0038 17.8654 44.7315 18.0529 45.2806 18.428C45.8298 18.8029 46.2316 19.3879 46.4861 20.1825C46.7407 20.9773 46.8657 22.0399 46.8657 23.3614V25.1474C46.8657 26.46 46.7407 27.5137 46.495 28.3084C46.2495 29.103 45.8478 29.688 45.2896 30.0541C44.7359 30.4201 43.9814 30.6079 43.0304 30.6079C42.0571 30.6121 41.2892 30.4246 40.7356 30.0496ZM43.8474 28.1209C43.9993 27.719 44.0797 27.0627 44.0797 26.1564V22.3212C44.0797 21.4371 44.0038 20.7942 43.8474 20.3835C43.6957 19.9772 43.4233 19.7718 43.0349 19.7718C42.6599 19.7718 42.3964 19.9772 42.2402 20.3835C42.0884 20.7897 42.0081 21.4371 42.0081 22.3212V26.1564C42.0081 27.0672 42.0795 27.7235 42.2268 28.1209C42.3741 28.5227 42.642 28.7236 43.0305 28.7236C43.4233 28.7236 43.6912 28.5227 43.8474 28.1209ZM83.3604 25.183V25.8037C83.3604 26.5939 83.3828 27.1832 83.4319 27.5806C83.4765 27.9735 83.5748 28.2637 83.7221 28.4424C83.8694 28.6209 84.097 28.7147 84.4051 28.7147C84.8204 28.7147 85.1061 28.554 85.2579 28.2324C85.4098 27.911 85.4944 27.3752 85.5079 26.6252L87.8965 26.7636C87.91 26.8707 87.9144 27.018 87.9144 27.2055C87.9144 28.3441 87.6018 29.1923 86.9813 29.7549C86.3607 30.3175 85.4812 30.5987 84.3427 30.5987C82.9764 30.5987 82.021 30.1701 81.4718 29.3129C80.9227 28.4557 80.6504 27.1341 80.6504 25.3394V23.1918C80.6504 21.3434 80.9361 19.9994 81.503 19.1468C82.0701 18.2985 83.0433 17.8743 84.4231 17.8743C85.374 17.8743 86.1018 18.0485 86.6107 18.3967C87.1197 18.7449 87.4769 19.2851 87.6868 20.0218C87.8921 20.7585 87.9993 21.7765 87.9993 23.0712V25.1786H83.3604V25.183ZM83.7131 20.0039C83.5746 20.1782 83.481 20.4638 83.4318 20.8568C83.3827 21.2496 83.3604 21.8524 83.3604 22.6515V23.5356H85.3874V22.6515C85.3874 21.8612 85.3606 21.263 85.307 20.8568C85.2534 20.4504 85.1552 20.1603 85.0168 19.9951C84.8783 19.8298 84.6596 19.745 84.3649 19.745C84.0703 19.7405 83.8515 19.8298 83.7131 20.0039ZM33.9938 24.9509L30.8418 13.5703H33.5919L34.6948 18.7271C34.9761 19.9996 35.1814 21.08 35.3154 21.9774H35.3957C35.4895 21.3344 35.6948 20.2585 36.0164 18.7449L37.1593 13.5658H39.9095L36.7218 24.9509V30.4113H33.9938V24.9509ZM55.8085 18.1065V30.4068H53.6431L53.4019 28.9022H53.3439C52.7546 30.0407 51.8706 30.6077 50.6963 30.6077C49.8794 30.6077 49.2766 30.3398 48.8882 29.8041C48.4997 29.2683 48.3078 28.4334 48.3078 27.2949V18.1065H51.0759V27.1386C51.0759 27.6878 51.1339 28.0807 51.2545 28.3129C51.3751 28.545 51.5759 28.6656 51.8572 28.6656C52.0983 28.6656 52.3305 28.594 52.5492 28.4468C52.768 28.2995 52.9332 28.1119 53.0404 27.8842V18.1064L55.8085 18.1065ZM70.0153 18.1065V30.4068H67.8499L67.6087 28.9022H67.5507C66.9614 30.0407 66.0774 30.6077 64.9031 30.6077C64.0862 30.6077 63.4834 30.3398 63.095 29.8041C62.7065 29.2683 62.5146 28.4334 62.5146 27.2949V18.1065H65.2827V27.1386C65.2827 27.6878 65.3407 28.0807 65.4613 28.3129C65.5818 28.545 65.7827 28.6656 66.064 28.6656C66.3051 28.6656 66.5373 28.594 66.756 28.4468C66.9748 28.2995 67.14 28.1119 67.2472 27.8842V18.1064L70.0153 18.1065Z" fill="#282828"/>
<path fill-rule="evenodd" clip-rule="evenodd" d="M63.3356 15.7984H60.5854V30.4069H57.8753V15.7984H55.125V13.5705H63.3311V15.7984H63.3356ZM79.1809 20.0755C79.0113 19.2987 78.7434 18.7361 78.3684 18.3879C77.9934 18.0396 77.48 17.8655 76.8235 17.8655C76.3147 17.8655 75.8414 18.0084 75.3994 18.2986C74.9574 18.5843 74.6181 18.9639 74.3769 19.4326H74.3547V12.9498H71.6847V30.4114H73.9706L74.2519 29.2461H74.31C74.5243 29.6614 74.8457 29.9873 75.2743 30.2283C75.7029 30.4694 76.1763 30.59 76.6986 30.59C77.6362 30.59 78.3237 30.1569 78.7658 29.2952C79.2077 28.4336 79.4266 27.0852 79.4266 25.2502V23.3035C79.4311 21.9284 79.3462 20.8524 79.1809 20.0756V20.0755ZM76.6405 25.0939C76.6405 25.9913 76.6048 26.6922 76.529 27.2013C76.4574 27.7103 76.3325 28.0719 76.1584 28.2862C75.9842 28.5005 75.7521 28.6077 75.4574 28.6077C75.2296 28.6077 75.0199 28.5541 74.8234 28.4469C74.6314 28.3398 74.4707 28.179 74.3502 27.9647V20.9775C74.444 20.6425 74.6047 20.3703 74.8324 20.156C75.06 19.9417 75.3056 19.8345 75.5735 19.8345C75.8547 19.8345 76.0735 19.946 76.2253 20.1648C76.3771 20.3836 76.4843 20.7586 76.5467 21.2765C76.6049 21.7989 76.636 22.5401 76.636 23.5044V25.0939H76.6405Z" fill="#282828"/>
</svg>
