<svg width="71" height="71" viewBox="0 0 71 71" fill="none" xmlns="http://www.w3.org/2000/svg">
<path d="M32.6008 57.6875H22.1874C20.3533 57.6875 18.7262 57.6283 17.2766 57.4212C9.49617 56.5633 7.39575 52.895 7.39575 42.8958V28.1042C7.39575 18.105 9.49617 14.4367 17.2766 13.5788C18.7262 13.3717 20.3533 13.3125 22.1874 13.3125H32.4233" stroke="#24262B" stroke-width="1.5" stroke-linecap="round" stroke-linejoin="round"/>
<path d="M44.4341 13.3125H48.8124C50.6466 13.3125 52.2737 13.3717 53.7232 13.5788C61.5037 14.4367 63.6041 18.105 63.6041 28.1042V42.8958C63.6041 52.895 61.5037 56.5633 53.7232 57.4212C52.2737 57.6283 50.6466 57.6875 48.8124 57.6875H44.4341" stroke="#24262B" stroke-width="1.5" stroke-linecap="round" stroke-linejoin="round"/>
<path d="M44.375 5.91663V65.0833" stroke="#24262B" stroke-width="1.5" stroke-linecap="round" stroke-linejoin="round"/>
<path d="M32.8216 35.5H32.8481" stroke="#24262B" stroke-width="2" stroke-linecap="round" stroke-linejoin="round"/>
<path d="M20.9881 35.5H21.0146" stroke="#24262B" stroke-width="2" stroke-linecap="round" stroke-linejoin="round"/>
</svg>
