<svg width="102" height="44" viewBox="0 0 102 44" fill="none" xmlns="http://www.w3.org/2000/svg">
<path d="M101.199 20.971V19.1912H98.9893V16.4244L98.9149 16.4473L96.839 17.0825L96.798 17.0949V19.1913H93.5216V18.0234C93.5216 17.4796 93.6432 17.0635 93.8828 16.7859C94.1208 16.5117 94.4612 16.3723 94.8953 16.3723C95.2074 16.3723 95.5306 16.4458 95.8558 16.5908L95.9373 16.6272V14.7529L95.899 14.7388C95.5956 14.6297 95.183 14.5748 94.6715 14.5748C94.0268 14.5748 93.4411 14.7151 92.9303 14.9931C92.4192 15.2716 92.0171 15.669 91.7354 16.1744C91.4548 16.6791 91.3123 17.2621 91.3123 17.9072V19.1912H89.7734V20.971H91.3123V28.4688H93.5216V20.971H96.798V25.7357C96.798 27.6981 97.7237 28.6925 99.5491 28.6925C99.8491 28.6925 100.165 28.6574 100.487 28.5886C100.815 28.5179 101.039 28.4473 101.17 28.3719L101.199 28.3547V26.5585L101.11 26.6179C100.99 26.6978 100.84 26.7631 100.665 26.8116C100.49 26.8611 100.343 26.8858 100.229 26.8858C99.8013 26.8858 99.4849 26.7706 99.2886 26.5432C99.0901 26.3137 98.9894 25.9125 98.9894 25.3511V20.971H101.199ZM84.8398 26.8861C84.038 26.8861 83.4058 26.6202 82.9602 26.0965C82.512 25.5701 82.2848 24.8196 82.2848 23.8661C82.2848 22.8824 82.512 22.1124 82.9604 21.5767C83.4062 21.0445 84.0324 20.7744 84.8218 20.7744C85.5879 20.7744 86.1977 21.0324 86.6345 21.5416C87.0734 22.0534 87.2962 22.8172 87.2962 23.8124C87.2962 24.8198 87.0867 25.5937 86.6736 26.1114C86.2633 26.6251 85.6464 26.8861 84.8398 26.8861ZM84.938 18.9678C83.4082 18.9678 82.1931 19.416 81.3267 20.3001C80.4609 21.1843 80.022 22.4079 80.022 23.9373C80.022 25.3899 80.4505 26.5583 81.2957 27.4095C82.1409 28.261 83.2912 28.6923 84.7143 28.6923C86.1973 28.6923 87.3882 28.2378 88.2542 27.3415C89.1201 26.4461 89.5587 25.234 89.5587 23.7404C89.5587 22.2651 89.1471 21.088 88.3348 20.2425C87.5222 19.3965 86.3792 18.9678 84.938 18.9678ZM76.46 18.9678C75.4194 18.9678 74.5586 19.2339 73.901 19.7588C73.2394 20.2867 72.9038 20.9791 72.9038 21.817C72.9038 22.2526 72.9763 22.6395 73.1188 22.9676C73.2622 23.2968 73.4842 23.5867 73.779 23.83C74.0716 24.0713 74.5233 24.3241 75.1219 24.5813C75.6251 24.7883 76.0003 24.9634 76.2387 25.1015C76.4717 25.2368 76.637 25.3727 76.7304 25.5052C76.8211 25.6348 76.8672 25.8122 76.8672 26.0311C76.8672 26.6544 76.4004 26.9577 75.4399 26.9577C75.0837 26.9577 74.6773 26.8833 74.2322 26.7366C73.7902 26.5922 73.3731 26.3807 72.9954 26.1095L72.9036 26.0437V28.1707L72.9373 28.1864C73.2499 28.3307 73.644 28.4524 74.1085 28.5481C74.5722 28.644 74.9934 28.6927 75.3594 28.6927C76.4886 28.6927 77.398 28.4253 78.0615 27.8973C78.7292 27.3657 79.0677 26.657 79.0677 25.7901C79.0677 25.1647 78.8855 24.6284 78.5264 24.1959C78.1698 23.7669 77.5508 23.3731 76.6874 23.025C75.9996 22.7489 75.559 22.5197 75.3772 22.3438C75.2019 22.1739 75.113 21.9335 75.113 21.6292C75.113 21.3594 75.2228 21.1432 75.4483 20.9682C75.6755 20.7923 75.9918 20.7028 76.3885 20.7028C76.7565 20.7028 77.1331 20.7609 77.5077 20.8749C77.882 20.9888 78.2107 21.1415 78.4851 21.3281L78.5754 21.3898V19.3722L78.5407 19.3573C78.2875 19.2487 77.9537 19.1558 77.5482 19.0804C77.1446 19.0055 76.7785 18.9678 76.46 18.9678ZM67.1445 26.8861C66.3428 26.8861 65.7104 26.6202 65.265 26.0965C64.8166 25.5701 64.5899 24.8198 64.5899 23.8661C64.5899 22.8824 64.8169 22.1124 65.2655 21.5767C65.7109 21.0445 66.337 20.7744 67.1268 20.7744C67.8925 20.7744 68.5023 21.0324 68.9392 21.5416C69.3783 22.0534 69.601 22.8172 69.601 23.8124C69.601 24.8198 69.3914 25.5937 68.9783 26.1114C68.568 26.6251 67.9514 26.8861 67.1445 26.8861ZM67.243 18.9678C65.7128 18.9678 64.4976 19.416 63.6317 20.3001C62.7659 21.1843 62.3266 22.4079 62.3266 23.9373C62.3266 25.3905 62.7554 26.5583 63.6007 27.4095C64.4459 28.261 65.5961 28.6923 67.0192 28.6923C68.5019 28.6923 69.6931 28.2378 70.5591 27.3415C71.4248 26.4461 71.8637 25.234 71.8637 23.7404C71.8637 22.2651 71.4519 21.088 70.6395 20.2425C69.8267 19.3965 68.6838 18.9678 67.243 18.9678ZM58.9731 20.7979V19.1912H56.7908V28.4686H58.9731V23.7229C58.9731 22.9159 59.1561 22.253 59.5171 21.7522C59.8736 21.2575 60.3485 21.0067 60.9285 21.0067C61.1251 21.0067 61.3457 21.0392 61.5847 21.1033C61.8212 21.167 61.9925 21.2362 62.0935 21.3091L62.1853 21.3755V19.1754L62.1499 19.1602C61.9467 19.0739 61.6592 19.0303 61.2954 19.0303C60.747 19.0303 60.2562 19.2065 59.8359 19.5535C59.4669 19.8584 59.2002 20.2765 58.9963 20.7979H58.9731ZM52.8827 18.9678C51.8815 18.9678 50.9885 19.1824 50.2289 19.6056C49.4678 20.0298 48.8791 20.6354 48.4786 21.4055C48.0799 22.1737 47.8774 23.071 47.8774 24.0717C47.8774 24.9483 48.0737 25.7527 48.4617 26.4617C48.8498 27.1718 49.3992 27.7274 50.0947 28.1127C50.7892 28.4975 51.5918 28.6926 52.4805 28.6926C53.5176 28.6926 54.4031 28.4853 55.1131 28.0764L55.1417 28.0599V26.0606L55.05 26.1275C54.7284 26.3618 54.369 26.5488 53.9824 26.6835C53.5966 26.8181 53.245 26.8861 52.9366 26.8861C52.0803 26.8861 51.3929 26.6182 50.8939 26.0899C50.3939 25.561 50.1403 24.8183 50.1403 23.8836C50.1403 22.9431 50.4047 22.1813 50.9258 21.6192C51.4454 21.0587 52.1341 20.7744 52.9726 20.7744C53.6899 20.7744 54.3889 21.0173 55.0502 21.497L55.1417 21.5635V19.4568L55.1122 19.4402C54.8633 19.3009 54.5239 19.1859 54.1026 19.0986C53.683 19.0116 53.2726 18.9678 52.8827 18.9678ZM46.3744 19.1913H44.1921V28.4686H46.3744V19.1913ZM45.3056 15.2392C44.9464 15.2392 44.6332 15.3614 44.3758 15.6037C44.1173 15.8467 43.9863 16.1526 43.9863 16.5137C43.9863 16.869 44.1158 17.1694 44.3718 17.4059C44.6261 17.6417 44.9404 17.7613 45.3057 17.7613C45.671 17.7613 45.9864 17.6417 46.2438 17.4063C46.5028 17.1694 46.6342 16.8691 46.6342 16.5137C46.6342 16.1653 46.5063 15.8625 46.2544 15.6135C46.0027 15.3651 45.6834 15.2392 45.3056 15.2392ZM39.8606 18.5069V28.4686H42.0878V15.5232H39.0053L35.0873 25.1387L31.2851 15.5232H28.0771V28.4685H30.1701V18.5059H30.2419L34.2569 28.4686H35.8364L39.7888 18.5069H39.8606Z" fill="#706D6E"/>
<path d="M10.2662 21.4636H0V11.1974H10.2662V21.4636Z" fill="#F1511B"/>
<path d="M21.6014 21.4636H11.3354V11.1974H21.6014V21.4636Z" fill="#80CC28"/>
<path d="M10.2659 32.8026H0V22.5365H10.2659V32.8026Z" fill="#00ADEF"/>
<path d="M21.6014 32.8026H11.3354V22.5365H21.6014V32.8026Z" fill="#FBBC09"/>
</svg>
