<svg width="49" height="77" viewBox="0 0 49 77" fill="none" xmlns="http://www.w3.org/2000/svg">
<path d="M42.3676 61.9306H5.7774C4.38654 61.9306 3.18291 61.4224 2.16652 60.406C1.15012 59.3896 0.641926 58.186 0.641926 56.7951V27.9081C0.641926 26.5172 1.15012 25.3136 2.16652 24.2972C3.18291 23.2808 4.38654 22.7726 5.7774 22.7726H13.6411C13.8551 22.7726 14.0156 22.8261 14.1225 22.9331C14.2295 23.0401 14.283 23.2006 14.283 23.4145C14.283 23.6285 14.2295 23.8158 14.1225 23.9762C14.0156 24.1367 13.8551 24.217 13.6411 24.217H5.7774C4.8145 24.217 3.95859 24.5647 3.20966 25.2601C2.46074 25.9555 2.08628 26.8382 2.08628 27.9081V56.7951C2.08628 57.758 2.46074 58.6139 3.20966 59.3628C3.95859 60.1118 4.8145 60.4862 5.7774 60.4862H42.3676C43.3305 60.4862 44.1865 60.1118 44.9354 59.3628C45.6843 58.6139 46.0588 57.758 46.0588 56.7951V27.9081C46.0588 26.8382 45.6843 25.9555 44.9354 25.2601C44.1865 24.5647 43.3305 24.217 42.3676 24.217H34.5039C34.29 24.217 34.1295 24.1367 34.0225 23.9762C33.9155 23.8158 33.862 23.6285 33.862 23.4145C33.862 23.2006 33.9155 23.0401 34.0225 22.9331C34.1295 22.8261 34.29 22.7726 34.5039 22.7726H42.3676C43.7585 22.7726 44.9621 23.2808 45.9785 24.2972C46.9949 25.3136 47.5031 26.5172 47.5031 27.9081V56.7951C47.5031 58.186 46.9949 59.3896 45.9785 60.406C44.9621 61.4224 43.7585 61.9306 42.3676 61.9306ZM40.4418 58.3999H7.7032C6.7403 58.293 5.91113 57.9185 5.21571 57.2766C4.52028 56.6346 4.17256 55.8322 4.17256 54.8693V29.3524C4.27955 28.6035 4.60052 27.9348 5.13546 27.3464C5.67041 26.758 6.33909 26.4102 7.14151 26.3033C7.94393 26.1963 8.6661 26.4102 9.30803 26.9452C9.94997 27.4801 10.3244 28.1221 10.4314 28.871C10.9664 32.2946 12.5177 35.1031 15.0854 37.2964C17.6532 39.4896 20.6489 40.5863 24.0725 40.5863C27.4962 40.5863 30.4919 39.4896 33.0596 37.2964C35.6273 35.1031 37.1787 32.2946 37.7136 28.871C37.8206 28.1221 38.1951 27.4801 38.837 26.9452C39.4789 26.4102 40.2011 26.1695 41.0035 26.223C41.8059 26.2765 42.5014 26.6242 43.0898 27.2662C43.6783 27.9081 43.9725 28.6035 43.9725 29.3524V54.8693C43.9725 55.8322 43.6248 56.6614 42.9293 57.3568C42.2339 58.0522 41.4047 58.3999 40.4418 58.3999ZM7.38223 27.7476C6.95428 27.7476 6.55307 27.9081 6.17861 28.2291C5.80415 28.55 5.61691 28.9245 5.61691 29.3524V54.8693C5.61691 55.4043 5.83089 55.8857 6.25885 56.3137C6.6868 56.7416 7.16825 56.9556 7.7032 56.9556H40.4418C40.9768 56.9556 41.4582 56.7416 41.8862 56.3137C42.3141 55.8857 42.5281 55.4043 42.5281 54.8693V29.3524C42.5281 28.9245 42.3676 28.55 42.0467 28.2291C41.7257 27.9081 41.3512 27.7209 40.9233 27.6674C40.4953 27.6139 40.0941 27.7476 39.7197 28.0686C39.3452 28.3895 39.1045 28.764 38.9975 29.192C38.6765 31.5457 37.7939 33.7122 36.3495 35.6915C34.9052 37.6708 33.1131 39.1954 30.9733 40.2653C28.8335 41.3352 26.5333 41.8701 24.0725 41.8701C21.6118 41.8701 19.3115 41.3352 17.1717 40.2653C15.0319 39.1954 13.2399 37.6708 11.7955 35.6915C10.3512 33.7122 9.46852 31.5457 9.14755 29.192C9.04056 28.764 8.82658 28.4163 8.50562 28.1488C8.18465 27.8813 7.81019 27.7476 7.38223 27.7476ZM24.0725 38.5C21.7188 38.5 19.5522 37.8313 17.5729 36.494C15.5936 35.1566 14.176 33.3913 13.3201 31.198C12.4642 29.0047 12.2502 26.758 12.6782 24.4577C13.1061 22.1574 14.1493 20.1781 15.8076 18.5198C17.4659 16.8615 19.4452 15.8183 21.7455 15.3904C24.0458 14.9624 26.2925 15.1764 28.4858 16.0323C30.6791 16.8882 32.4444 18.3058 33.7818 20.2851C35.1191 22.2644 35.7878 24.4309 35.7878 26.7847C35.7878 28.9245 35.2529 30.877 34.183 32.6423C33.1131 34.4077 31.6955 35.8253 29.9302 36.8952C28.1648 37.9651 26.2123 38.5 24.0725 38.5ZM24.0725 16.5138C22.2537 16.5138 20.5419 16.9685 18.937 17.8779C17.3322 18.7873 16.0751 20.0444 15.1657 21.6492C14.2563 23.2541 13.8016 24.9659 13.8016 26.7847C13.8016 28.6035 14.2563 30.3153 15.1657 31.9202C16.0751 33.525 17.3322 34.7821 18.937 35.6915C20.5419 36.6009 22.2537 37.0556 24.0725 37.0556C25.8913 37.0556 27.6032 36.6009 29.208 35.6915C30.8128 34.7821 32.0699 33.525 32.9794 31.9202C33.8888 30.3153 34.3435 28.6035 34.3435 26.7847C34.3435 24.9659 33.8888 23.2541 32.9794 21.6492C32.0699 20.0444 30.8128 18.7873 29.208 17.8779C27.6032 16.9685 25.8913 16.5138 24.0725 16.5138ZM24.0725 20.8468C23.8585 20.8468 23.6981 20.7666 23.5911 20.6061C23.4841 20.4456 23.4306 20.2584 23.4306 20.0444V18.4396C23.4306 18.2256 23.4841 18.0383 23.5911 17.8779C23.6981 17.7174 23.8585 17.6371 24.0725 17.6371C24.2865 17.6371 24.447 17.7174 24.554 17.8779C24.661 18.0383 24.7145 18.2256 24.7145 18.4396V20.0444C24.7145 20.2584 24.661 20.4456 24.554 20.6061C24.447 20.7666 24.2865 20.8468 24.0725 20.8468ZM20.7024 21.6492C20.4884 21.6492 20.2744 21.5422 20.0604 21.3283L19.258 19.8839C19.151 19.6699 19.1243 19.4827 19.1778 19.3222C19.2313 19.1617 19.3383 19.028 19.4987 18.921C19.6592 18.814 19.8465 18.7873 20.0604 18.8408C20.2744 18.8943 20.4349 18.9745 20.5419 19.0815L21.3443 20.6863C21.4513 20.7933 21.478 20.9538 21.4245 21.1678C21.371 21.3818 21.2641 21.5155 21.1036 21.569C20.9431 21.6225 20.8094 21.6492 20.7024 21.6492ZM18.2951 24.217C18.1881 24.217 18.0811 24.1635 17.9741 24.0565L16.3693 23.2541C16.2623 23.1471 16.1821 22.9866 16.1286 22.7726C16.0751 22.5586 16.1018 22.3714 16.2088 22.2109C16.3158 22.0504 16.4496 21.9434 16.61 21.89C16.7705 21.8365 16.9577 21.8632 17.1717 21.9702L18.6161 22.7726C18.8301 22.8796 18.9638 23.0401 19.0173 23.2541C19.0708 23.468 19.044 23.682 18.937 23.896C18.8301 24.11 18.6161 24.217 18.2951 24.217ZM17.3322 27.4266H15.7274C15.5134 27.4266 15.3262 27.3731 15.1657 27.2662C15.0052 27.1592 14.925 26.9987 14.925 26.7847C14.925 26.5707 15.0052 26.4102 15.1657 26.3033C15.3262 26.1963 15.5134 26.1428 15.7274 26.1428H17.3322C17.5462 26.1428 17.7334 26.1963 17.8939 26.3033C18.0544 26.4102 18.1346 26.5707 18.1346 26.7847C18.1346 26.9987 18.0544 27.1592 17.8939 27.2662C17.7334 27.3731 17.5462 27.4266 17.3322 27.4266ZM16.8508 31.7597C16.4228 31.6527 16.1821 31.4387 16.1286 31.1178C16.0751 30.7968 16.1553 30.5293 16.3693 30.3153L17.9741 29.5129C18.0811 29.4059 18.2416 29.3792 18.4556 29.4327C18.6696 29.4862 18.8301 29.5932 18.937 29.7536C19.044 29.9141 19.0708 30.1014 19.0173 30.3153C18.9638 30.5293 18.8301 30.6363 18.6161 30.6363L17.1717 31.5992C17.0647 31.5992 16.9577 31.6527 16.8508 31.7597ZM31.2943 31.7597C31.1873 31.7597 31.0803 31.7062 30.9733 31.5992L29.529 30.6363C29.315 30.6363 29.1812 30.5293 29.1277 30.3153C29.0743 30.1014 29.101 29.9141 29.208 29.7536C29.315 29.5932 29.4755 29.4862 29.6894 29.4327C29.9034 29.3792 30.0639 29.4059 30.1709 29.5129L31.6152 30.3153C31.8292 30.4223 31.963 30.5828 32.0165 30.7968C32.0699 31.0108 32.0432 31.198 31.9362 31.3585C31.8292 31.519 31.6152 31.6527 31.2943 31.7597ZM32.4177 27.4266H30.6523C30.5454 27.4266 30.4116 27.3731 30.2511 27.2662C30.0906 27.1592 30.0104 26.9987 30.0104 26.7847C30.0104 26.5707 30.0906 26.4102 30.2511 26.3033C30.4116 26.1963 30.5454 26.1428 30.6523 26.1428H32.4177C32.6316 26.1428 32.8189 26.1963 32.9794 26.3033C33.1398 26.4102 33.2201 26.5707 33.2201 26.7847C33.2201 26.9987 33.1398 27.1592 32.9794 27.2662C32.8189 27.3731 32.6316 27.4266 32.4177 27.4266ZM29.8499 24.217C29.529 24.217 29.315 24.0297 29.208 23.6553C29.101 23.2808 29.208 22.9866 29.529 22.7726L30.9733 21.9702C31.1873 21.8632 31.3745 21.8365 31.535 21.89C31.6955 21.9434 31.8292 22.0504 31.9362 22.2109C32.0432 22.3714 32.0699 22.5586 32.0165 22.7726C31.963 22.9866 31.8292 23.1471 31.6152 23.2541L30.1709 24.0565C30.0639 24.1635 29.9569 24.217 29.8499 24.217ZM27.4427 21.6492C27.1217 21.6492 26.9077 21.5422 26.8007 21.3283C26.6937 21.1143 26.6937 20.9003 26.8007 20.6863L27.6032 19.0815C27.7101 18.9745 27.8706 18.8943 28.0846 18.8408C28.2986 18.7873 28.4858 18.814 28.6463 18.921C28.8068 19.028 28.9138 19.1617 28.9673 19.3222C29.0208 19.4827 28.994 19.6699 28.887 19.8839L28.0846 21.3283C27.8706 21.5422 27.6566 21.6492 27.4427 21.6492ZM24.0725 28.7105C23.6446 28.7105 23.2701 28.6035 22.9491 28.3895C22.6282 28.1756 22.3874 27.8813 22.227 27.5069C22.0665 27.1324 22.013 26.758 22.0665 26.3835C22.12 26.009 22.3072 25.6613 22.6282 25.3403C22.9491 25.0194 23.2968 24.8321 23.6713 24.7787C24.0458 24.7252 24.4202 24.7787 24.7947 24.9391C25.1692 25.0996 25.4634 25.3403 25.6774 25.6613C25.8913 25.9823 25.9983 26.3835 25.9983 26.8649C25.9983 27.3464 25.8111 27.7743 25.4366 28.1488C25.0622 28.5233 24.6075 28.7105 24.0725 28.7105ZM24.0725 26.1428C23.8585 26.1428 23.6981 26.1963 23.5911 26.3033C23.4841 26.4102 23.4306 26.5707 23.4306 26.7847C23.4306 26.9987 23.4841 27.1592 23.5911 27.2662C23.6981 27.3731 23.8585 27.4266 24.0725 27.4266C24.2865 27.4266 24.447 27.3731 24.554 27.2662C24.661 27.1592 24.7145 26.9987 24.7145 26.7847C24.7145 26.5707 24.661 26.4102 24.554 26.3033C24.447 26.1963 24.2865 26.1428 24.0725 26.1428ZM25.0354 26.6242C24.7145 26.6242 24.5005 26.4637 24.3935 26.1428C24.2865 25.8218 24.34 25.5543 24.554 25.3403L26.8007 23.0936C27.0147 22.8796 27.2019 22.7726 27.3624 22.7726C27.5229 22.7726 27.6834 22.8529 27.8439 23.0133C28.0044 23.1738 28.0846 23.3343 28.0846 23.4948C28.0846 23.6553 27.9776 23.8425 27.7636 24.0565L25.5169 26.3033C25.4099 26.5172 25.2494 26.6242 25.0354 26.6242Z" fill="#ABABAB"/>
</svg>
