<svg width="32" height="48" viewBox="0 0 32 48" fill="none" xmlns="http://www.w3.org/2000/svg">
<path d="M31.2369 38.6422C31.2369 39.4773 31.1148 40.3356 30.8554 41.1706C30.596 42.0057 30.2603 42.7944 29.8178 43.5366C29.07 44.7892 28.246 45.6939 27.3151 46.2738C26.3996 46.8537 25.4077 47.1552 24.3395 47.1552C22.783 47.1552 21.1196 46.5985 19.3648 45.4619C17.6099 44.3253 15.855 42.7944 14.1154 40.8691C12.3605 38.9206 10.6972 36.7634 9.11013 34.3742C7.53837 31.9618 6.1192 29.4334 4.85263 26.789C3.60133 24.1447 2.59418 21.5003 1.8617 18.8792C1.12923 16.2348 0.762993 13.7064 0.762993 11.294C0.762993 9.71669 0.946111 8.20895 1.31235 6.81718C1.67858 5.40222 2.25846 4.10323 3.06723 2.94343C4.04386 1.48207 5.11205 0.762993 6.24128 0.762993C6.66856 0.762993 7.09583 0.90217 7.47733 1.18052C7.87409 1.45888 8.22506 1.87641 8.49974 2.47951L12.04 10.0646C12.3147 10.6445 12.5131 11.178 12.6504 11.6884C12.7878 12.1755 12.8641 12.6626 12.8641 13.1033C12.8641 13.66 12.7572 14.2167 12.5436 14.7502C12.3452 15.2838 12.0553 15.8405 11.6891 16.3972L10.5293 18.2297C10.3614 18.4848 10.2851 18.7864 10.2851 19.1575C10.2851 19.3431 10.3004 19.5055 10.3309 19.691C10.3767 19.8766 10.4225 20.0158 10.453 20.1549C10.7277 20.9204 11.2007 21.9178 11.8722 23.124C12.5589 24.3302 13.2913 25.5596 14.0848 26.789C14.9089 28.0184 15.7024 29.155 16.5112 30.1989C17.3047 31.2195 17.9609 31.9154 18.4797 32.3329C18.556 32.3793 18.6475 32.4489 18.7544 32.5185C18.8764 32.5881 18.9985 32.6113 19.1359 32.6113C19.3953 32.6113 19.5937 32.4721 19.7615 32.2169L20.9213 30.4772C21.3028 29.8973 21.669 29.4566 22.02 29.1782C22.371 28.8535 22.7219 28.6911 23.1034 28.6911C23.3934 28.6911 23.6986 28.7839 24.0343 28.9927C24.37 29.2014 24.721 29.503 25.1025 29.8973L30.1535 35.3484C30.5502 35.7659 30.8249 36.253 30.9928 36.8329C31.1454 37.4128 31.2369 37.9928 31.2369 38.6422Z" stroke="white" stroke-width="1.5" stroke-miterlimit="10"/>
</svg>
