<svg width="88" height="44" viewBox="0 0 88 44" fill="none" xmlns="http://www.w3.org/2000/svg">
<path d="M10.838 7.64083H11.6205C14.3373 7.69989 17.0097 8.7925 18.9292 10.7267C18.2205 11.4502 17.497 12.1442 16.803 12.8677C15.7252 11.8932 14.4259 11.1401 13.0084 10.8744C10.9118 10.4314 8.65273 10.8301 6.89569 12.026C4.97624 13.2811 3.67692 15.4072 3.39638 17.6811C3.08632 19.9254 3.72121 22.2878 5.18295 24.03C6.58563 25.728 8.72656 26.7911 10.9413 26.8649C13.0084 26.983 15.1641 26.3482 16.6701 24.9012C17.8513 23.8824 18.3976 22.3321 18.5748 20.826C16.1238 20.826 13.6728 20.8408 11.2218 20.826V17.7844H21.5426C22.0741 21.0475 21.3064 24.724 18.8258 27.0569C17.1721 28.7106 14.8836 29.6851 12.5507 29.877C10.2916 30.0985 7.95878 29.6703 5.95073 28.5777C3.54403 27.2931 1.62458 25.1227 0.679621 22.5683C-0.206281 20.2207 -0.221046 17.5629 0.605795 15.2005C1.35881 13.0448 2.80578 11.1401 4.66618 9.81129C6.45274 8.4972 8.6232 7.77371 10.838 7.64083Z" fill="#3780FF"/>
<path d="M70.0455 8.40852H73.2052V29.493C72.1569 29.493 71.0938 29.5077 70.0455 29.4782C70.0603 22.4648 70.0455 15.4367 70.0455 8.40852Z" fill="#38B137"/>
<path d="M28.5705 15.7173C30.5195 15.3482 32.6309 15.7616 34.2403 16.928C35.702 17.9616 36.7208 19.5858 37.0309 21.3576C37.4295 23.4099 36.9275 25.6542 35.5987 27.2783C34.1665 29.0944 31.8188 30.0689 29.5302 29.9213C27.4336 29.8032 25.396 28.7548 24.1558 27.0421C22.7531 25.1522 22.4135 22.5535 23.1813 20.3388C23.949 17.9616 26.1195 16.1455 28.5705 15.7173ZM29.0134 18.5227C28.2161 18.7294 27.4779 19.1871 26.9463 19.8368C25.5141 21.5495 25.6027 24.3401 27.1826 25.9347C28.0833 26.8502 29.4416 27.2783 30.6967 27.0273C31.8631 26.8206 32.8819 26.0381 33.443 25.0045C34.4175 23.2475 34.1369 20.826 32.6457 19.4529C31.6859 18.567 30.2832 18.1978 29.0134 18.5227Z" fill="#FA3913"/>
<path d="M44.2215 15.7173C46.451 15.2891 48.8873 15.9092 50.5557 17.4743C53.2725 19.9106 53.5678 24.4729 51.2497 27.2783C49.847 29.0501 47.5732 30.0246 45.3289 29.9212C43.188 29.8622 41.0766 28.7991 39.8068 27.0421C38.3746 25.1078 38.0645 22.4501 38.8766 20.1911C39.6887 17.8878 41.8148 16.1307 44.2215 15.7173ZM44.6645 18.5227C43.8672 18.7294 43.1289 19.1871 42.5974 19.822C41.1799 21.5052 41.239 24.2515 42.7598 25.8609C43.6604 26.8206 45.0631 27.2931 46.3624 27.0273C47.5141 26.8058 48.5477 26.038 49.1087 25.0045C50.0685 23.2327 49.7879 20.8112 48.2819 19.4381C47.3222 18.5522 45.9195 18.1978 44.6645 18.5227Z" fill="#FCBD06"/>
<path d="M57.4956 16.5735C59.1936 15.5104 61.4526 15.2151 63.2835 16.1306C63.8593 16.3816 64.3318 16.8098 64.7895 17.2379C64.8043 16.8393 64.7895 16.4259 64.8043 16.0125C65.7935 16.0272 66.7828 16.0125 67.7868 16.0272V29.0499C67.7721 31.0137 67.27 33.0956 65.8526 34.5278C64.3023 36.1076 61.9251 36.5949 59.7842 36.27C57.4956 35.9304 55.5023 34.262 54.6164 32.1506C55.5023 31.7224 56.4325 31.3828 57.3479 30.9842C57.8647 32.1949 58.913 33.2284 60.2271 33.4647C61.5412 33.7009 63.062 33.3761 63.9184 32.2835C64.8338 31.1613 64.8338 29.6258 64.7895 28.2526C64.1103 28.9171 63.3278 29.5077 62.3828 29.7291C60.3305 30.305 58.0714 29.5963 56.4916 28.2083C54.897 26.8204 53.952 24.6795 54.0406 22.5533C54.0849 20.1467 55.4433 17.8285 57.4956 16.5735ZM60.552 18.4634C59.6513 18.6111 58.8097 19.1131 58.2338 19.8071C56.8459 21.4607 56.8459 24.1037 58.2486 25.7278C59.0459 26.6875 60.3305 27.2191 61.5707 27.0862C62.7372 26.9681 63.815 26.2298 64.3909 25.211C65.3654 23.4835 65.2029 21.1359 63.8889 19.6299C63.0768 18.6997 61.7775 18.242 60.552 18.4634Z" fill="#3780FF"/>
<path d="M77 17.3266C78.7718 15.6729 81.5033 15.1118 83.7772 15.983C85.9329 16.7951 87.306 18.8474 88 20.9588C84.7959 22.2877 81.6067 23.6017 78.4027 24.9306C78.8456 25.7722 79.5248 26.54 80.4402 26.85C81.7248 27.3078 83.2604 27.1453 84.3382 26.289C84.7664 25.9641 85.106 25.536 85.4308 25.1225C86.2429 25.6688 87.055 26.2004 87.8671 26.7467C86.7154 28.4742 84.7812 29.6849 82.6993 29.8769C80.3959 30.1574 77.945 29.2715 76.4537 27.4702C74.0027 24.6353 74.2389 19.881 77 17.3266ZM78.5799 20.0581C78.0778 20.7816 77.8711 21.6675 77.8859 22.5387C80.0268 21.6528 82.1678 20.7669 84.3087 19.8662C83.9543 19.0393 83.098 18.5373 82.2268 18.4044C80.8241 18.1534 79.3624 18.9065 78.5799 20.0581Z" fill="#FA3913"/>
</svg>
