<svg width="20" height="20" viewBox="0 0 20 20" fill="none" xmlns="http://www.w3.org/2000/svg">
<path fill-rule="evenodd" clip-rule="evenodd" d="M0.835632 1.875C0.835632 1.52982 1.11545 1.25 1.46063 1.25H3.04504C3.66916 1.25 4.2241 1.64716 4.42542 2.23792L4.81569 3.38313H15.2103C17.3964 3.38313 19.1687 5.15533 19.1687 7.34146V10.7935C19.1687 12.9796 17.3964 14.7518 15.2103 14.7518H8.97371C7.0575 14.7518 5.41646 13.3792 5.07772 11.4932L3.76157 4.16506L3.24223 2.64113C3.21347 2.55674 3.1342 2.5 3.04504 2.5H1.46063C1.11545 2.5 0.835632 2.22018 0.835632 1.875ZM5.11563 4.63313L6.30804 11.2722C6.5398 12.5627 7.66262 13.5018 8.97371 13.5018H15.2103C16.7061 13.5018 17.9187 12.2892 17.9187 10.7935V7.34146C17.9187 5.84569 16.7061 4.63313 15.2103 4.63313H5.11563Z" fill="#24262B"/>
<path fill-rule="evenodd" clip-rule="evenodd" d="M7.91663 17.0833C7.91663 16.393 8.47627 15.8333 9.16663 15.8333H9.17496C9.86532 15.8333 10.425 16.393 10.425 17.0833C10.425 17.7737 9.86532 18.3333 9.17496 18.3333H9.16663C8.47627 18.3333 7.91663 17.7737 7.91663 17.0833Z" fill="#24262B"/>
<path fill-rule="evenodd" clip-rule="evenodd" d="M14.5833 17.0833C14.5833 16.393 15.143 15.8333 15.8333 15.8333H15.8416C16.532 15.8333 17.0916 16.393 17.0916 17.0833C17.0916 17.7737 16.532 18.3333 15.8416 18.3333H15.8333C15.143 18.3333 14.5833 17.7737 14.5833 17.0833Z" fill="#24262B"/>
</svg>
