<svg width="88" height="44" viewBox="0 0 88 44" fill="none" xmlns="http://www.w3.org/2000/svg">
<path d="M26.8935 19.8042C27.9003 19.8042 28.7164 18.9878 28.7164 17.9808C28.7164 16.9737 27.9003 16.1574 26.8935 16.1574C25.8867 16.1574 25.0706 16.9737 25.0706 17.9808C25.0706 18.9878 25.8867 19.8042 26.8935 19.8042ZM87.0543 26.0342C86.777 25.8392 86.5629 25.8069 86.3853 26.1856C83.3236 32.8167 78.1642 29.5077 78.6767 29.7989C79.8211 29.2754 82.831 26.8615 82.3761 23.5284C82.0998 21.4914 80.3515 20.5878 78.4958 20.9114C75.2565 21.4761 74.0648 24.97 74.6715 28.0633C74.7776 28.5945 74.9673 29.0326 75.1568 29.4618C71.4962 32.4386 70.0426 26.797 69.8776 26.1229C69.8711 26.0868 72.7041 23.7254 73.492 18.0985C74.3179 12.2011 72.4366 11.1273 70.5128 11.1608C66.9529 11.2229 65.991 18.6607 67.2833 24.8595C67.1751 24.8877 66.6713 25.1667 65.8619 25.198C65.2795 23.3653 62.7908 21.7589 62.1395 22.3779C60.5094 23.9264 62.5348 26.9539 63.96 27.1913C63.1039 32.4643 57.7498 31.1584 58.7464 24.5522C60.49 21.3144 61.816 16.5002 61.5794 13.5938C61.4956 12.5649 60.7348 11.1863 59.0143 11.2546C55.7051 11.3856 55.3453 18.8254 55.7332 24.1058C55.714 23.9758 55.5298 24.7474 54.1737 25.131C53.853 23.3505 50.9861 21.5634 50.3113 22.4226C49.048 24.0307 51.2373 26.8981 52.2744 27.0981C51.4182 32.3709 46.0643 31.065 47.061 24.4587C48.8045 21.2211 50.1304 16.4069 49.8938 13.5005C49.8099 12.4714 49.0493 11.0928 47.3287 11.161C44.0194 11.2921 43.6597 18.732 44.0476 24.0124C44.0282 23.8802 43.8397 24.6773 42.4283 25.0546C42.3811 22.7446 39.5038 21.6854 38.8126 22.4224C37.5807 23.7363 39.0947 26.4319 40.4953 27.0981C39.6391 32.3709 34.2852 31.065 35.2819 24.4587C37.0254 21.2211 38.3514 16.4069 38.1147 13.5005C38.031 12.4714 37.2702 11.0928 35.5496 11.161C32.2405 11.2921 31.9742 19.106 32.3622 24.3862C31.2722 29.0562 27.6169 34.8881 28.0918 23.2055C28.1387 22.386 28.1899 22.0749 27.7814 21.768C27.4752 21.5295 26.779 21.6443 26.3985 21.6538C25.936 21.6723 25.82 21.9429 25.7178 22.352C25.4796 23.4083 25.4369 24.4323 25.4028 25.8294C25.3805 26.483 25.3281 26.7879 25.0764 27.6791C24.825 28.5701 23.3909 30.1987 22.6058 29.9264C21.5165 29.5518 21.8739 26.4768 22.078 24.364C22.2481 22.6944 21.7034 21.9446 20.308 21.672C19.491 21.5017 18.9947 21.5278 18.1439 21.2596C17.3393 21.006 17.1574 19.4841 15.4413 19.9913C14.5027 20.269 15.1061 22.2577 14.8805 23.7316C13.7715 30.9821 11.4639 31.1813 10.3934 27.6592C15.2149 15.8505 11.7881 11.1952 9.78226 11.1952C7.69305 11.1952 5.3049 12.6343 6.31617 21.8419C5.82445 21.6984 5.67326 21.6211 5.13498 21.6211C2.09069 21.6211 0.0166016 24.0821 0.0166016 27.118C0.0166016 30.1539 2.09086 32.615 5.13515 32.615C6.93228 32.615 8.19405 31.7977 9.14965 30.5334C9.77315 31.4263 10.5324 32.6288 11.9208 32.5747C16.0591 32.4135 17.2627 23.9246 17.4048 23.4511C17.8472 23.5193 18.2657 23.6483 18.6743 23.7165C19.355 23.8187 19.4044 24.0881 19.389 24.7728C19.2086 30.5463 20.274 32.5678 22.6907 32.5678C24.0371 32.5678 25.2372 31.2448 26.064 30.2989C26.6814 31.5733 27.6654 32.5288 28.9854 32.5676C32.184 32.6472 33.4086 27.5491 33.297 28.22C33.2093 28.7464 34.3347 32.5389 37.6276 32.5527C41.7065 32.5698 42.4647 28.0842 42.5551 27.3329C42.5664 27.1834 42.5714 27.1989 42.5551 27.3329L42.552 27.3784C43.8469 27.1376 44.5151 26.4433 44.5151 26.4433C44.5151 26.4433 45.5549 32.6224 49.4065 32.5528C53.4062 32.4803 54.1605 28.4256 54.2594 27.635C54.2725 27.4473 54.2802 27.4693 54.2594 27.635C54.2589 27.6427 54.2584 27.6504 54.2579 27.6582C55.7961 27.0986 56.2007 26.5369 56.2007 26.5369C56.2007 26.5369 57.0271 32.5932 61.0921 32.6461C64.7146 32.6935 66.0571 28.984 66.065 27.4314C66.676 27.4379 67.8061 27.0688 67.7797 27.0479C67.7797 27.0479 69.1065 32.3431 72.812 32.615C74.5517 32.7427 75.8568 31.6361 76.6007 31.1313C78.349 32.5472 84.1708 34.3556 87.8468 28.1232C88.3657 27.2288 87.2501 26.1722 87.0543 26.0342ZM4.98825 30.5592C3.21209 30.5592 2.07316 28.9168 2.07316 27.146C2.07316 25.3753 3.11862 23.733 4.89479 23.733C5.69405 23.733 6.13869 23.821 6.76116 24.3623C6.87404 24.8071 7.19394 25.8332 7.3496 26.2991C7.55818 26.9226 7.80627 27.4534 8.05643 28.031C7.69906 29.5125 6.5275 30.5592 4.98825 30.5592ZM9.31648 24.4144C9.2426 24.2967 9.25806 24.369 9.17542 24.2579C8.84984 23.3722 8.2224 21.3954 8.14972 19.15C8.0676 16.6099 8.49094 13.6327 9.73896 13.6327C10.5846 13.6327 11.4833 19.6666 9.31631 24.4144H9.31648ZM34.3252 21.7678C34.1249 20.2606 34.1144 13.5411 35.7276 13.7261C36.6182 14.0869 35.1628 20.4275 34.3252 21.7678ZM46.1043 21.7678C45.904 20.2606 45.8935 13.5411 47.5066 13.7261C48.3973 14.0869 46.9419 20.4275 46.1043 21.7678ZM57.79 21.8615C57.5895 20.354 57.5792 13.6345 59.1921 13.8196C60.0828 14.1804 58.6274 20.5212 57.79 21.8615ZM70.6908 13.3328C72.1656 13.1799 72.1048 19.6204 69.1445 23.6864C68.7627 22.2168 68.1774 13.8375 70.6908 13.3327V13.3328ZM76.8897 27.1913C76.416 24.7986 77.64 23.227 78.9017 23.0547C79.3428 22.9842 79.9819 23.27 80.1094 23.8041C80.319 24.8108 80.079 26.3039 77.255 28.1985C77.2591 28.2146 76.9954 27.7243 76.8899 27.1913H76.8897Z" fill="black"/>
</svg>
