<svg width="88" height="44" viewBox="0 0 88 44" fill="none" xmlns="http://www.w3.org/2000/svg">
<path d="M19.7555 20.7564V28.9499C19.7555 29.0827 19.7028 29.2101 19.6089 29.304C19.515 29.3979 19.3877 29.4507 19.2549 29.4507H16.6691C16.5364 29.4506 16.4091 29.3978 16.3152 29.3039C16.2213 29.21 16.1686 29.0827 16.1685 28.9499V15.6227C16.1685 15.4899 16.2213 15.3625 16.3151 15.2686C16.409 15.1747 16.5364 15.1219 16.6691 15.1219H19.062C19.1947 15.1219 19.3221 15.1747 19.416 15.2686C19.5098 15.3625 19.5626 15.4899 19.5626 15.6227V17.4995C19.5626 17.4995 20.418 14.8223 22.9565 14.8223C22.9565 14.8223 25.4674 14.5187 26.4883 17.3063C26.4883 17.3063 27.3437 14.8223 29.9373 14.8223C29.9373 14.8223 33.7945 14.5929 33.7945 18.5852L33.8239 20.784V28.9775C33.8239 29.1103 33.7712 29.2377 33.6773 29.3316C33.5834 29.4255 33.456 29.4783 33.3233 29.4783H30.7373C30.6045 29.4782 30.4772 29.4254 30.3834 29.3315C30.2895 29.2376 30.2367 29.1103 30.2367 28.9775L30.213 20.0388C30.2866 18.0147 28.6495 18.1619 28.6495 18.1619C26.5894 18.1988 26.7876 20.784 26.7876 20.784V28.9775C26.7876 29.1103 26.7349 29.2377 26.641 29.3316C26.5471 29.4255 26.4198 29.4783 26.287 29.4783H23.7012C23.5685 29.4782 23.4412 29.4254 23.3473 29.3315C23.2534 29.2376 23.2007 29.1103 23.2006 28.9775V20.241C23.2006 20.241 23.3518 18.1434 21.5122 18.1434C21.5124 18.1434 19.6913 17.9043 19.7555 20.7564ZM86.4089 20.7319V28.9251C86.4088 29.0579 86.356 29.1853 86.2622 29.2792C86.1683 29.3731 86.041 29.4259 85.9082 29.4259L83.2189 29.478C83.0862 29.478 82.9589 29.4252 82.865 29.3313C82.7711 29.2374 82.7184 29.1101 82.7183 28.9773V20.241C82.7183 20.241 82.8695 18.1434 81.0301 18.1434C81.0301 18.1434 79.2732 18.0568 79.2732 21.3457V28.9497C79.2732 29.0825 79.2204 29.2098 79.1265 29.3037C79.0327 29.3976 78.9054 29.4504 78.7726 29.4504H76.1866C76.0539 29.4504 75.9266 29.3976 75.8327 29.3037C75.7388 29.2098 75.6861 29.0825 75.686 28.9497V15.6227C75.6861 15.4899 75.7388 15.3626 75.8327 15.2687C75.9266 15.1748 76.0539 15.122 76.1866 15.1219H78.5795C78.7122 15.1219 78.8396 15.1747 78.9335 15.2686C79.0273 15.3625 79.0801 15.4899 79.0801 15.6227V17.4995C79.0801 17.4995 79.9355 14.8223 82.474 14.8223C82.474 14.8223 85.1932 14.4096 86.1091 17.2544C86.1093 17.2542 86.4089 17.8411 86.4089 20.7319ZM67.7387 14.7671C64.4321 14.7671 61.7512 17.5547 61.7512 22.2468C61.7512 26.3778 63.8206 29.7264 67.7387 29.7264C71.4361 29.7264 73.7263 26.3778 73.7263 22.2468C73.7263 17.6375 71.0456 14.7671 67.7387 14.7671ZM69.8258 22.4124C69.8258 24.1788 69.6051 25.1172 69.6051 25.1172C69.291 26.9845 67.9359 26.9872 67.7361 26.9772C67.5204 26.9858 66.1538 26.9664 65.8711 25.1172C65.8711 25.1172 65.6503 24.1788 65.6503 22.4124V22.118C65.6503 20.3516 65.8711 19.4132 65.8711 19.4132C66.1538 17.564 67.5206 17.5446 67.7361 17.553C67.9359 17.543 69.291 17.5455 69.6051 19.4132C69.6051 19.4132 69.8258 20.3516 69.8258 22.118V22.4124ZM60.2504 17.481V15.5688C60.2503 15.4361 60.1975 15.3087 60.1037 15.2148C60.0098 15.1209 59.8825 15.0681 59.7497 15.0681H51.2027C51.0699 15.0681 50.9426 15.1208 50.8487 15.2147C50.7548 15.3087 50.7021 15.436 50.7021 15.5688V17.4662C50.7021 17.599 50.7549 17.7263 50.8488 17.8202C50.9426 17.9141 51.0699 17.9669 51.2027 17.967H55.661L50.384 25.6244C50.384 25.6244 50.176 25.9348 50.1829 26.2777V28.607C50.1829 28.607 50.1485 29.4056 51.0539 28.9421C51.0539 28.9421 52.6622 27.9702 55.359 27.9702C55.359 27.9702 58.0222 27.9371 59.7979 29.0258C59.7979 29.0258 60.5349 29.361 60.5349 28.624V26.5966C60.5349 26.5966 60.6018 26.06 59.8983 25.7251C59.8983 25.7251 57.8547 24.6025 55.1747 24.7867L60.2504 17.481ZM14.1728 27.0673L13.3634 25.8348C13.1058 25.3747 13.1243 24.8593 13.1243 24.8593V19.1739C13.2347 14.261 7.78969 14.6843 7.78969 14.6843C2.94931 14.6843 2.23434 18.4523 2.23434 18.4523C2.03258 19.2099 2.61931 19.2282 2.61931 19.2282L4.98453 19.4682C4.98453 19.4682 5.38782 19.5605 5.53461 19.0803C5.53461 19.0803 5.84608 17.4364 7.58793 17.4364C9.4832 17.4364 9.46355 19.0635 9.46355 19.0635V20.4256C5.68008 20.5521 3.92675 21.6027 3.92675 21.6027C1.59066 22.9275 1.73768 25.5588 1.73768 25.5588C1.73768 29.8459 5.82135 29.6617 5.82135 29.6617C8.43336 29.6617 9.97854 27.7483 9.97854 27.7483C10.4383 28.5582 11.2847 29.3305 11.2847 29.3305C11.708 29.7898 12.1493 29.4043 12.1493 29.4043L14.0624 27.7668C14.4854 27.4537 14.1728 27.0673 14.1728 27.0673ZM7.09612 27.0143C5.86749 27.0143 5.41078 25.7931 5.61474 24.5928C5.81893 23.3925 6.87936 22.4493 9.46377 22.4769V23.2066C9.55538 26.3945 8.11881 27.0143 7.09612 27.0143ZM48.5344 27.0673L47.7252 25.8348C47.4676 25.3747 47.4859 24.8593 47.4859 24.8593V19.1739C47.5963 14.261 42.1513 14.6843 42.1513 14.6843C37.3109 14.6843 36.5959 18.4523 36.5959 18.4523C36.3942 19.2099 36.9809 19.2282 36.9809 19.2282L39.3461 19.4682C39.3461 19.4682 39.7494 19.5605 39.8962 19.0803C39.8962 19.0803 40.2077 17.4364 41.9495 17.4364C43.8448 17.4364 43.8252 19.0635 43.8252 19.0635V20.4256C40.0419 20.5521 38.2884 21.6027 38.2884 21.6027C35.9523 22.9275 36.0993 25.5588 36.0993 25.5588C36.0993 29.8459 40.183 29.6617 40.183 29.6617C42.795 29.6617 44.3401 27.7483 44.3401 27.7483C44.8002 28.5582 45.646 29.3305 45.646 29.3305C46.0694 29.7898 46.5109 29.4043 46.5109 29.4043L48.4238 27.7668C48.847 27.4537 48.5344 27.0673 48.5344 27.0673ZM41.4577 27.0143C40.2291 27.0143 39.7724 25.7931 39.9763 24.5928C40.1805 23.3925 41.241 22.4493 43.8252 22.4769V23.2066C43.917 26.3945 42.4806 27.0143 41.4577 27.0143Z" fill="black"/>
<path d="M55.0453 37.8288C55.0453 37.8288 54.8289 38.2053 55.0947 38.2894C55.0947 38.2894 55.3949 38.4067 55.7693 38.0591C55.7693 38.0591 58.4996 35.6733 58.5654 31.3297C58.5654 31.3297 58.5855 30.7872 58.3678 30.6388C58.3678 30.6388 57.5125 29.8819 54.4367 30.1122C54.4367 30.1122 51.7556 30.2933 50.2919 31.5931C50.2919 31.5931 50.1603 31.7082 50.1603 31.8561C50.1603 31.8561 50.1288 32.1756 50.9334 32.0372C50.9334 32.0372 53.6142 31.6585 55.2097 31.8561C55.2097 31.8561 56.0324 31.9548 56.2626 32.2348C56.2626 32.2348 56.641 32.5474 56.4434 33.5837C56.4434 33.5841 55.9004 36.2165 55.0453 37.8288Z" fill="#F3971B"/>
<path d="M54.5046 33.6628C54.5046 33.6628 54.905 34.1817 54.2589 34.6292C54.2589 34.6292 47.357 40.1515 35.7682 40.1515C35.7682 40.1515 23.839 40.7402 13.8782 31.6873C13.8782 31.6873 13.529 31.3806 13.7457 31.0955C13.7457 31.0955 13.9395 30.8332 14.4413 31.1185C14.4413 31.1185 23.8114 36.9589 36.1177 36.9589C36.1177 36.9589 44.6713 37.2901 53.4457 33.5365C53.4457 33.5365 54.1448 33.1742 54.5046 33.6628Z" fill="#F3971B"/>
</svg>
