<svg width="170" height="25" viewBox="0 0 170 25" fill="none" xmlns="http://www.w3.org/2000/svg">
<path d="M40.142 13.0733V20.9668H37.0715V6.38119H40.142V9.04179C40.5801 8.14786 41.2444 7.44119 42.1277 6.93239C43.0146 6.42006 43.9686 6.16565 44.9933 6.16565C47.297 6.16565 48.8587 7.11612 49.682 9.01706C51.1271 7.11612 52.9256 6.16565 55.0809 6.16565C56.7275 6.16565 58.056 6.66739 59.0701 7.67439C60.0841 8.68139 60.5929 10.1336 60.5929 12.0345V20.9703H57.5225V12.9638C57.5225 10.2785 56.406 8.93226 54.1764 8.93226C53.1341 8.93226 52.226 9.26439 51.4487 9.93219C50.6713 10.6 50.265 11.5717 50.2297 12.8507V20.9668H47.1592V12.9638C47.1592 11.5752 46.9119 10.5576 46.4172 9.90746C45.9225 9.25733 45.1452 8.9358 44.0887 8.9358C43.0287 8.9358 42.1065 9.28913 41.3186 9.99226C40.5342 10.6954 40.142 11.7201 40.142 13.0733Z" fill="#24262B"/>
<path d="M77.0689 19.0093C75.6061 20.4616 73.7794 21.1894 71.5852 21.1894C69.391 21.1894 67.5643 20.4616 66.1015 19.0093C64.6387 17.5571 63.9073 15.7799 63.9073 13.6775C63.9073 11.5752 64.6387 9.79793 66.1015 8.34572C67.5643 6.89352 69.391 6.16565 71.5852 6.16565C73.7794 6.16565 75.6061 6.89352 77.0689 8.34572C78.5317 9.79793 79.2632 11.5752 79.2632 13.6775C79.2632 15.7799 78.5317 17.5571 77.0689 19.0093ZM68.2815 17.119C69.1507 18.0059 70.2496 18.4475 71.5852 18.4475C72.9208 18.4475 74.0197 18.0059 74.8889 17.119C75.7581 16.2321 76.1927 15.0873 76.1927 13.6775C76.1927 12.2713 75.7581 11.1229 74.8889 10.2361C74.0197 9.34919 72.9208 8.90752 71.5852 8.90752C70.2496 8.90752 69.1507 9.34919 68.2815 10.2361C67.4123 11.1229 66.9777 12.2677 66.9777 13.6775C66.9813 15.0838 67.4159 16.2321 68.2815 17.119Z" fill="#24262B"/>
<path d="M94.9412 19.0093C93.4784 20.4616 91.6517 21.1894 89.4575 21.1894C87.2633 21.1894 85.4365 20.4616 83.9737 19.0093C82.5109 17.5571 81.7795 15.7799 81.7795 13.6775C81.7795 11.5752 82.5109 9.79793 83.9737 8.34572C85.4365 6.89352 87.2633 6.16565 89.4575 6.16565C91.6517 6.16565 93.4784 6.89352 94.9412 8.34572C96.404 9.79793 97.1354 11.5752 97.1354 13.6775C97.1354 15.7799 96.404 17.5571 94.9412 19.0093ZM86.1573 17.119C87.0265 18.0059 88.1254 18.4475 89.461 18.4475C90.7966 18.4475 91.8955 18.0059 92.7647 17.119C93.6339 16.2321 94.0685 15.0873 94.0685 13.6775C94.0685 12.2713 93.6339 11.1229 92.7647 10.2361C91.8955 9.34919 90.7966 8.90752 89.461 8.90752C88.1254 8.90752 87.0265 9.34919 86.1573 10.2361C85.2881 11.1229 84.8535 12.2677 84.8535 13.6775C84.8535 15.0838 85.2881 16.2321 86.1573 17.119Z" fill="#24262B"/>
<path d="M103.684 13.0733V20.9668H100.614V6.38119H103.684V9.04179C104.179 8.14786 104.858 7.44119 105.727 6.93239C106.596 6.42006 107.532 6.16565 108.536 6.16565C110.182 6.16565 111.511 6.66739 112.525 7.67439C113.539 8.68139 114.048 10.1336 114.048 12.0345V20.9703H110.977V12.9638C110.977 10.2785 109.861 8.93226 107.631 8.93226C106.571 8.93226 105.649 9.28559 104.861 9.98872C104.08 10.6954 103.684 11.7201 103.684 13.0733Z" fill="#24262B"/>
<path d="M124.799 21.1894C122.771 21.1894 121.025 20.5004 119.563 19.1189C118.1 17.7409 117.368 15.9353 117.368 13.7058C117.368 11.4763 118.132 9.66366 119.658 8.26445C121.184 6.86525 123.043 6.16565 125.237 6.16565C127.431 6.16565 129.286 6.92532 130.802 8.44112L128.993 10.6601C127.732 9.56472 126.46 9.01353 125.181 9.01353C123.902 9.01353 122.792 9.43753 121.849 10.2891C120.909 11.1371 120.435 12.2359 120.435 13.5786C120.435 14.9213 120.902 16.059 121.835 16.9918C122.767 17.9246 123.912 18.391 125.276 18.391C126.636 18.391 127.923 17.7691 129.127 16.5254L130.936 18.5005C129.166 20.292 127.117 21.1894 124.799 21.1894Z" fill="#24262B"/>
<path d="M145.823 20.9703H143.028V19.0235C141.823 20.4686 140.205 21.1894 138.177 21.1894C136.661 21.1894 135.403 20.7619 134.407 19.8997C133.41 19.0411 132.912 17.8928 132.912 16.4583C132.912 15.0237 133.442 13.9496 134.502 13.2359C135.562 12.5221 136.997 12.1653 138.806 12.1653H142.781V11.6176C142.781 9.68133 141.703 8.71319 139.544 8.71319C138.191 8.71319 136.785 9.20786 135.322 10.1937L133.951 8.27505C135.725 6.86878 137.735 6.16565 139.982 6.16565C141.7 6.16565 143.102 6.60025 144.191 7.46945C145.279 8.33865 145.823 9.70252 145.823 11.5681V20.9703ZM142.752 15.5396V14.3065H139.297C137.085 14.3065 135.979 15.0025 135.979 16.3911C135.979 17.1049 136.255 17.649 136.802 18.0235C137.35 18.3981 138.113 18.5853 139.092 18.5853C140.071 18.5853 140.922 18.3097 141.654 17.7621C142.389 17.2144 142.752 16.4724 142.752 15.5396Z" fill="#24262B"/>
<path d="M157.748 9.26439C156.233 9.26439 155.088 9.75906 154.321 10.7449C153.554 11.7307 153.169 13.0557 153.169 14.7199V20.9703H150.099V6.38473H153.169V9.31739C153.664 8.40226 154.335 7.6532 155.183 7.07019C156.035 6.48719 156.932 6.18332 157.883 6.16565L157.911 9.26439C157.858 9.26439 157.805 9.26439 157.748 9.26439Z" fill="#24262B"/>
<path d="M164.764 8.85098V16.2533C164.764 16.9494 164.947 17.5006 165.311 17.9105C165.675 18.3203 166.188 18.5288 166.848 18.5288C167.505 18.5288 168.138 18.2108 168.739 17.5677L170 19.7337C168.922 20.7018 167.728 21.1859 166.424 21.1859C165.117 21.1859 164.004 20.7336 163.078 19.8291C162.156 18.9245 161.693 17.7055 161.693 16.1685V8.84745H159.856V6.38118H161.693V1.80197H164.764V6.38118H168.601V8.84745H164.764V8.85098Z" fill="#24262B"/>
<path d="M23.8918 4.77002L23.3618 6.10208L21.9556 6.64268L23.3618 7.20448L23.8918 8.60016L24.39 7.20448L25.8493 6.68508L24.4324 6.16568L23.8918 4.77002Z" fill="#24262B"/>
<path d="M20.4077 0L20.0049 1.01053L18.9343 1.4204L20.0049 1.84794L20.4077 2.90794L20.7858 1.84794L21.8917 1.4522L20.8176 1.06L20.4077 0Z" fill="#24262B"/>
<path d="M24.311 11.9108C19.0675 11.9108 14.8169 7.66024 14.8169 2.41676C14.8169 1.8585 14.8663 1.31436 14.9582 0.784363C12.1739 2.27897 10.2801 5.2187 10.2801 8.60011C10.2801 13.4973 14.2515 17.4688 19.1487 17.4688C23.0955 17.4688 26.438 14.8895 27.5899 11.3278C26.5723 11.7059 25.4664 11.9108 24.311 11.9108Z" fill="#24262B"/>
<path d="M13.9722 24.8429C15.0416 24.8429 15.9085 23.976 15.9085 22.9066C15.9085 21.8372 15.0416 20.9704 13.9722 20.9704C12.9028 20.9704 12.0359 21.8372 12.0359 22.9066C12.0359 23.976 12.9028 24.8429 13.9722 24.8429Z" fill="#24262B"/>
<path d="M14.0401 24.8287H11.3653C11.2523 24.8287 11.1604 24.7369 11.1604 24.6238C11.1604 24.5107 11.2523 24.4189 11.3653 24.4189H14.0401C14.1531 24.4189 14.245 24.5107 14.245 24.6238C14.245 24.7369 14.1531 24.8287 14.0401 24.8287Z" fill="#24262B"/>
<path d="M23.5928 24.8429C24.6622 24.8429 25.5291 23.976 25.5291 22.9066C25.5291 21.8372 24.6622 20.9704 23.5928 20.9704C22.5234 20.9704 21.6565 21.8372 21.6565 22.9066C21.6565 23.976 22.5234 24.8429 23.5928 24.8429Z" fill="#24262B"/>
<path d="M23.6602 24.8287H20.9855C20.8725 24.8287 20.7806 24.7369 20.7806 24.6238C20.7806 24.5107 20.8725 24.4189 20.9855 24.4189H23.6602C23.7733 24.4189 23.8652 24.5107 23.8652 24.6238C23.8652 24.7369 23.7733 24.8287 23.6602 24.8287Z" fill="#24262B"/>
<path d="M29.7967 7.83697C29.4716 7.95004 29.2737 8.27157 29.2702 8.61783C29.2631 14.1934 24.7263 18.7267 19.1472 18.7267C14.0132 18.7267 10.0912 15.4972 9.17608 10.335L9.07715 9.91457L8.41995 6.17983C8.22208 5.25056 7.39881 4.5863 6.44834 4.5863H0.727867C0.325066 4.5863 0 4.91137 0 5.31417C0 5.71697 0.325066 6.04204 0.727867 6.04204H5.52967C6.24694 6.04204 6.86882 6.54377 7.01722 7.24337L7.54368 10.3527C8.63548 16.4159 13.2536 20.3556 19.1472 20.3556C25.6273 20.3556 30.8991 15.0838 30.8991 8.60371C30.9026 8.05604 30.3691 7.63557 29.7967 7.83697Z" fill="#24262B"/>
</svg>
