<svg width="88" height="44" viewBox="0 0 88 44" fill="none" xmlns="http://www.w3.org/2000/svg">
<path d="M12.1003 32.3581C10.7765 32.5906 9.42941 32.6603 8.03593 32.8459L3.78563 20.3973V33.3802C2.46185 33.5195 1.25417 33.7053 0 33.8911V10.1085H3.53031L8.36103 23.6025V10.1085H12.1003V32.3581ZM19.4162 18.818C20.8563 18.818 23.0626 18.7483 24.3864 18.7483V22.4642C22.7373 22.4642 20.8098 22.4642 19.4162 22.5339V28.0616C21.5994 27.9223 23.7826 27.7363 25.9889 27.6666V31.2431L15.7001 32.0561V10.1085H25.9889V13.8246H19.4162V18.818ZM39.8078 13.8246H35.9525V30.9183C34.6983 30.9183 33.4441 30.9183 32.2366 30.9646V13.8246H28.3813V10.1085H39.808L39.8078 13.8246ZM45.8463 18.5626H50.9327V22.2785H45.8463V30.7093H42.1997V10.1085H52.5816V13.8246H45.8463V18.5626ZM58.6201 27.4577C60.7337 27.504 62.8702 27.6669 64.9374 27.7828V31.4524C61.6162 31.2433 58.295 31.0345 54.9042 30.9646V10.1085H58.6201V27.4577ZM68.0727 31.7079C69.2572 31.7777 70.5114 31.8474 71.7191 31.9865V10.1085H68.0727V31.7079ZM88 10.1085L83.2852 21.4192L88 33.8911C86.6064 33.7053 85.2129 33.4498 83.8193 33.2175L81.1485 26.343L78.4315 32.6603C77.0841 32.4278 75.7836 32.3581 74.4367 32.1723L79.2211 21.2797L74.9011 10.1085H78.8956L81.3343 16.3561L83.9356 10.1085H88Z" fill="#D81F26"/>
</svg>
