<svg width="18" height="18" viewBox="0 0 18 18" fill="none" xmlns="http://www.w3.org/2000/svg">
<path d="M6.22266 12.9727C6.08203 13.125 6.01172 13.3008 6.01172 13.5C6.01172 13.6992 6.08496 13.8721 6.23145 14.0186C6.37793 14.165 6.55078 14.2383 6.75 14.2383C6.94922 14.2383 7.125 14.168 7.27734 14.0273L11.7773 9.52734C11.9297 9.375 12.0059 9.19922 12.0059 9C12.0059 8.80078 11.9297 8.625 11.7773 8.47266L7.27734 3.97266C7.125 3.83203 6.94922 3.76172 6.75 3.76172C6.55078 3.76172 6.37793 3.83496 6.23145 3.98145C6.08496 4.12793 6.01172 4.30078 6.01172 4.5C6.01172 4.69922 6.08203 4.875 6.22266 5.02734L10.1953 9L6.22266 12.9727Z" fill="#24262B"/>
</svg>
