<svg width="14" height="15" viewBox="0 0 14 15" fill="none" xmlns="http://www.w3.org/2000/svg">
<path d="M0.984127 8.25397L0.285714 7.55556C0 7.2381 0 6.7619 0.285714 6.47619L6.47619 0.285714C6.7619 0 7.2381 0 7.52381 0.285714L13.7143 6.47619C14 6.7619 14 7.2381 13.7143 7.55556L13.0159 8.25397C12.6984 8.53968 12.2222 8.53968 11.9048 8.22222L8.28571 4.4127V13.5238C8.28571 13.9683 7.93651 14.2857 7.52381 14.2857H6.50794C6.06349 14.2857 5.74603 13.9683 5.74603 13.5238V4.4127L2.09524 8.25397C1.77778 8.53968 1.30159 8.57143 0.984127 8.25397Z" fill="white"/>
</svg>
