<svg width="49" height="77" viewBox="0 0 49 77" fill="none" xmlns="http://www.w3.org/2000/svg">
<path d="M47.6636 53.2645C47.5566 52.8365 47.3693 52.4621 47.1019 52.1411C46.8344 51.8201 46.4867 51.6596 46.0587 51.6596C44.6679 51.6596 43.491 52.1946 42.5281 53.2645C41.0302 52.3016 39.5324 51.5527 38.0346 51.0177C37.9276 48.8779 37.5799 46.8719 36.9914 44.9996C36.403 43.1273 35.5738 41.4957 34.5039 40.1048C35.1459 39.1419 35.6273 38.072 35.9483 36.8952L36.5902 37.0557C37.5531 37.0557 38.3823 36.7079 39.0777 36.0125C39.7731 35.3171 40.1208 34.5147 40.1208 33.6053C40.1208 32.6958 39.7731 31.8934 39.0777 31.198C38.3823 30.5026 37.5531 30.1549 36.5902 30.1549C36.2692 30.1549 35.9483 30.2084 35.6273 30.3153C35.0924 28.2826 34.183 26.5172 32.8991 25.0194C33.755 24.8054 34.3434 24.4042 34.6644 23.8158C34.9854 23.2273 35.0656 22.5854 34.9051 21.89C34.7446 21.1945 34.3969 20.5793 33.862 20.0444C33.755 19.9374 33.755 19.8304 33.862 19.7234C34.3969 19.0815 34.7446 18.4396 34.9051 17.7976C35.0656 17.1557 34.9854 16.5673 34.6644 16.0323C34.2365 15.1764 33.3805 14.6682 32.0967 14.5077C30.8128 14.3472 29.4754 14.588 28.0846 15.2299C27.4426 15.4439 26.8007 15.8183 26.1588 16.3533C25.5168 15.8183 24.8214 15.5509 24.0725 15.5509C23.3236 15.5509 22.6281 15.8183 21.9862 16.3533C21.3443 15.8183 20.7023 15.4439 20.0604 15.2299C18.6695 14.588 17.3322 14.3472 16.0483 14.5077C14.7645 14.6682 13.9085 15.1764 13.4806 16.0323C13.1596 16.5673 13.0794 17.1557 13.2399 17.7976C13.4003 18.4396 13.7481 19.0815 14.283 19.7234C14.39 19.8304 14.39 19.9374 14.283 20.0444C13.7481 20.5793 13.4003 21.1945 13.2399 21.89C13.0794 22.5854 13.1596 23.2273 13.4806 23.8158C13.8015 24.4042 14.39 24.8054 15.2459 25.0194C13.962 26.5172 13.0526 28.2826 12.5177 30.3153C12.1967 30.2084 11.8757 30.1549 11.5548 30.1549C10.5919 30.1549 9.76272 30.5026 9.06729 31.198C8.37186 31.8934 8.02414 32.6958 8.02414 33.6053C8.02414 34.5147 8.37186 35.3171 9.06729 36.0125C9.76272 36.7079 10.5919 37.0557 11.5548 37.0557L12.1967 36.8952C12.5177 38.072 12.9991 39.1419 13.6411 40.1048C13.2131 40.7468 12.7852 41.4422 12.3572 42.1911C12.2502 42.4051 12.2235 42.5923 12.277 42.7528C12.3305 42.9133 12.4642 43.047 12.6782 43.154L12.9991 43.3145C13.3201 43.3145 13.5341 43.154 13.6411 42.8331C13.962 42.1911 14.283 41.6027 14.604 41.0677C14.9249 41.4957 15.3529 41.8167 15.8878 42.0306L15.7274 42.5121C15.6204 43.582 15.9413 44.4914 16.6903 45.2403C17.1182 45.6683 17.6799 45.9892 18.3753 46.2032C19.0708 46.4172 19.7929 46.4707 20.5419 46.3637C20.8628 47.0056 21.3443 47.5138 21.9862 47.8883C22.6281 48.2627 23.3236 48.45 24.0725 48.45C24.8214 48.45 25.5168 48.2627 26.1588 47.8883C26.8007 47.5138 27.2822 47.0056 27.6031 46.3637C28.3521 46.4707 29.0742 46.4172 29.7697 46.2032C30.4651 45.9892 31.0268 45.6683 31.4547 45.2403C32.2037 44.4914 32.5246 43.582 32.4176 42.5121L32.2572 42.0306C32.7921 41.8167 33.2201 41.4957 33.541 41.0677C34.8249 43.1005 35.7343 45.4275 36.2692 48.0488C36.8042 50.67 36.7507 53.318 36.1088 55.9927C35.0389 54.9228 33.648 54.4414 31.9362 54.5484C32.3641 52.4086 32.3106 50.2688 31.7757 48.129C31.7757 47.915 31.6955 47.7546 31.535 47.6476C31.3745 47.5406 31.1873 47.5138 30.9733 47.5673C30.7593 47.6208 30.5988 47.7278 30.4918 47.8883C30.3848 48.0488 30.3848 48.236 30.4918 48.45C31.1338 51.5527 30.8663 54.4949 29.6894 57.2766C29.4754 57.7045 29.3685 58.186 29.3685 58.7209C25.8378 58.4 22.3072 58.4 18.7765 58.7209C18.7765 58.186 18.6695 57.7045 18.4556 57.2766C18.2416 56.6346 18.0276 55.9392 17.8136 55.1903C17.2787 52.9435 17.2252 50.6967 17.6532 48.45C17.7601 48.236 17.7601 48.0488 17.6532 47.8883C17.5462 47.7278 17.3857 47.6208 17.1717 47.5673C16.9577 47.5138 16.7705 47.5406 16.61 47.6476C16.4495 47.7546 16.3693 47.915 16.3693 48.129C15.8343 50.2688 15.7808 52.4086 16.2088 54.5484C14.497 54.4414 13.1061 54.9228 12.0362 55.9927C11.3943 53.104 11.3943 50.1618 12.0362 47.1661L12.3572 45.7218C12.4642 45.6148 12.4642 45.4543 12.3572 45.2403C12.2502 45.0263 12.1165 44.8926 11.956 44.8391C11.7955 44.7856 11.635 44.8124 11.4745 44.9193C11.3141 45.0263 11.1803 45.1868 11.0733 45.4008L10.7524 46.8451C10.4314 48.236 10.2174 49.6269 10.1104 51.0177C8.61258 51.5527 7.11474 52.3016 5.61689 53.2645C4.65399 52.1946 3.47711 51.6596 2.08625 51.6596C1.6583 51.6596 1.31058 51.8201 1.04311 52.1411C0.775639 52.4621 0.588408 52.8365 0.481419 53.2645C0.37443 55.4043 0.588408 57.758 1.12335 60.3258C1.23034 61.1817 1.6583 61.7701 2.40722 62.0911C2.83518 62.412 3.31663 62.5725 3.85157 62.5725L4.49351 62.412C7.06124 61.7701 9.68247 61.2352 12.3572 60.8072C12.9991 61.8771 13.962 62.412 15.2459 62.412C15.7808 62.412 16.2623 62.3051 16.6903 62.0911C17.5462 61.6631 18.1881 61.0212 18.6161 60.1653C22.2537 59.8443 25.8913 59.8443 29.5289 60.1653C29.9569 61.0212 30.5988 61.6631 31.4547 62.0911C31.8827 62.3051 32.3641 62.412 32.8991 62.412C34.183 62.412 35.1459 61.8771 35.7878 60.8072L38.516 61.2887C38.944 61.2887 39.1847 61.1549 39.2382 60.8875C39.2917 60.62 39.2649 60.406 39.1579 60.2455C39.051 60.085 38.8905 59.9513 38.6765 59.8443L36.5902 59.5233C37.4461 57.2766 37.9276 54.9228 38.0346 52.4621C39.3184 52.997 40.5488 53.6389 41.7257 54.3879C42.0466 54.6018 42.3409 54.7088 42.6083 54.7088C42.8758 54.7088 43.1165 54.5484 43.3305 54.2274C44.0794 53.4785 44.9888 53.104 46.0587 53.104C46.1657 53.104 46.2192 53.211 46.2192 53.425C46.4332 55.4578 46.2727 57.7045 45.7378 60.1653C45.6308 60.4862 45.4168 60.7537 45.0958 60.9677C44.7749 61.1817 44.4004 61.2352 43.9724 61.1282L41.8862 60.6467C41.6722 60.5397 41.485 60.5397 41.3245 60.6467C41.164 60.7537 41.057 60.9142 41.0035 61.1282C40.95 61.3422 40.9768 61.5294 41.0837 61.6899C41.1907 61.8504 41.3512 61.9306 41.5652 61.9306L43.6515 62.412L44.2934 62.5725C44.8284 62.5725 45.3098 62.412 45.7378 62.0911C46.4867 61.7701 46.9146 61.1817 47.0216 60.3258C47.5566 57.758 47.7706 55.4043 47.6636 53.2645ZM28.7265 16.5138C29.6894 16.0858 30.6523 15.8718 31.6152 15.8718C32.5781 15.8718 33.2201 16.1393 33.541 16.6742C33.862 17.2092 33.648 17.9046 32.8991 18.7605C32.5781 19.0815 32.4176 19.456 32.4176 19.8839C32.4176 20.3119 32.5781 20.6863 32.8991 21.0073C33.648 21.7562 33.862 22.4517 33.541 23.0936C33.327 23.4146 32.8723 23.6553 32.1769 23.8158C31.4815 23.9762 30.6523 23.9228 29.6894 23.6553C28.7265 23.3878 27.7636 22.8796 26.8007 22.1307C26.9077 21.8097 26.9612 21.3818 26.9612 20.8468V19.8839H27.6031C28.3521 19.8839 28.8068 20.0979 28.9672 20.5259C29.1277 20.9538 29.3685 21.1678 29.6894 21.1678H30.0104C30.1174 21.0608 30.2244 20.9271 30.3314 20.7666C30.4383 20.6061 30.4383 20.4189 30.3314 20.2049C30.1174 19.6699 29.7964 19.242 29.3685 18.921C28.9405 18.6 28.4055 18.4396 27.7636 18.4396H26.9612L26.8007 17.6371C27.4426 17.1022 28.0846 16.7277 28.7265 16.5138ZM26.8007 25.9823C26.4797 25.8753 26.1855 25.6881 25.9181 25.4206C25.6506 25.1531 25.3296 25.0996 24.9552 25.2601C24.5807 25.4206 24.3935 25.6613 24.3935 25.9823C24.2865 26.7312 24.34 27.4801 24.5539 28.2291C22.7351 27.9081 21.3978 27.1057 20.5419 25.8218C20.2209 25.5008 19.9534 25.1264 19.7394 24.6984C20.4884 24.3775 21.2373 23.896 21.9862 23.2541C22.6281 23.896 23.3236 24.217 24.0725 24.217C24.8214 24.217 25.5168 23.896 26.1588 23.2541L26.6402 23.7355C26.5332 24.4844 26.5867 25.2334 26.8007 25.9823ZM24.0725 16.9952C24.5004 16.9952 24.8482 17.129 25.1156 17.3964C25.3831 17.6639 25.5168 17.9581 25.5168 18.2791V21.3283C25.5168 21.7562 25.3831 22.1039 25.1156 22.3714C24.8482 22.6389 24.5004 22.7726 24.0725 22.7726C23.6445 22.7726 23.2968 22.6389 23.0294 22.3714C22.7619 22.1039 22.6281 21.7562 22.6281 21.3283V18.2791C22.6281 17.9581 22.7619 17.6639 23.0294 17.3964C23.2968 17.129 23.6445 16.9952 24.0725 16.9952ZM14.604 23.0936C14.283 22.4517 14.497 21.7562 15.2459 21.0073C15.5669 20.6863 15.7274 20.3119 15.7274 19.8839C15.7274 19.456 15.5669 19.0815 15.2459 18.7605C14.497 17.9046 14.283 17.2092 14.604 16.6742C14.9249 16.1393 15.5669 15.8718 16.5298 15.8718C17.4927 15.8718 18.4556 16.0858 19.4185 16.5138C20.0604 16.7277 20.7023 17.1022 21.3443 17.6371L21.1838 18.4396H20.3814C19.7394 18.4396 19.2045 18.6 18.7765 18.921C18.3486 19.242 18.0276 19.6699 17.8136 20.2049C17.7066 20.4189 17.7066 20.6061 17.8136 20.7666C17.9206 20.9271 18.0276 21.0608 18.1346 21.1678H18.4556C18.7765 21.1678 19.0173 20.9538 19.1777 20.5259C19.3382 20.0979 19.7929 19.8839 20.5419 19.8839H21.1838V21.3283L21.3443 22.1307C20.3814 22.8796 19.4185 23.3878 18.4556 23.6553C17.4927 23.9228 16.6635 23.9762 15.9681 23.8158C15.2726 23.6553 14.8179 23.4146 14.604 23.0936ZM27.9241 44.9193C27.6031 44.9193 27.3089 44.9728 27.0414 45.0798C26.774 45.1868 26.56 45.4008 26.3995 45.7218C26.239 46.0427 25.9448 46.3369 25.5168 46.6044C25.0889 46.8719 24.6074 47.0056 24.0725 47.0056C23.5375 47.0056 23.0561 46.8719 22.6281 46.6044C22.2002 46.3369 21.906 46.0427 21.7455 45.7218C21.585 45.4008 21.371 45.1868 21.1036 45.0798C20.8361 44.9728 20.5151 44.9461 20.1406 44.9996C19.7662 45.0531 19.3382 45.0263 18.8568 44.9193C18.3753 44.8124 17.9741 44.5716 17.6532 44.1972C17.3322 43.8227 17.1717 43.368 17.1717 42.8331C18.9905 43.689 21.2908 44.1169 24.0725 44.1169C26.8542 44.1169 29.1545 43.689 30.9733 42.8331C30.9733 43.368 30.8128 43.8227 30.4918 44.1972C30.1709 44.5716 29.7697 44.8124 29.2882 44.9193C28.8068 45.0263 28.3521 45.0263 27.9241 44.9193ZM24.0725 42.6726C21.3978 42.6726 19.2045 42.2446 17.4927 41.3887C15.2459 40.2118 13.9085 38.393 13.4806 35.9323C13.4806 35.6113 13.3736 35.3973 13.1596 35.2903C12.9456 35.1833 12.7049 35.2101 12.4374 35.3706C12.17 35.5311 11.7955 35.6113 11.3141 35.6113C10.8326 35.6113 10.4046 35.4241 10.0302 35.0496C9.65573 34.6751 9.4685 34.1937 9.4685 33.6053C9.4685 33.0168 9.65573 32.5354 10.0302 32.1609C10.4046 31.7864 10.8326 31.5992 11.3141 31.5992C11.7955 31.5992 12.17 31.6795 12.4374 31.8399C12.7049 32.0004 12.9724 32.0272 13.2399 31.9202C13.5073 31.8132 13.6411 31.6527 13.6411 31.4387C14.176 28.978 15.2994 26.9452 17.0112 25.3404C17.4392 25.2334 17.9206 25.1264 18.4556 25.0194C18.6695 25.6613 18.9905 26.2498 19.4185 26.7847C19.9534 27.5336 20.7558 28.1756 21.8257 28.7105C22.8956 29.2455 24.019 29.6199 25.1959 29.8339C25.6238 29.8339 25.9181 29.6734 26.0785 29.3524C26.239 29.0315 26.239 28.6838 26.0785 28.3093C25.9181 27.9348 25.7843 27.4801 25.6773 26.9452C26.2123 27.2662 26.7205 27.4534 27.2019 27.5069C27.6834 27.5604 28.0311 27.4534 28.2451 27.1859C28.459 26.9184 28.459 26.544 28.2451 26.0625C28.0311 25.5811 27.9241 25.0729 27.9241 24.5379C28.994 24.9659 30.0639 25.2334 31.1338 25.3404C32.8456 26.9452 33.969 28.978 34.5039 31.4387C34.5039 31.6527 34.6377 31.8132 34.9051 31.9202C35.1726 32.0272 35.4401 32.0004 35.7075 31.8399C35.975 31.6795 36.3495 31.5992 36.8309 31.5992C37.3124 31.5992 37.7403 31.7864 38.1148 32.1609C38.4893 32.5354 38.6765 33.0168 38.6765 33.6053C38.6765 34.1937 38.4893 34.6751 38.1148 35.0496C37.7403 35.4241 37.3124 35.6113 36.8309 35.6113C36.3495 35.6113 35.975 35.5311 35.7075 35.3706C35.4401 35.2101 35.1994 35.1833 34.9854 35.2903C34.7714 35.3973 34.6644 35.6113 34.6644 35.9323C34.2365 38.393 32.8991 40.2118 30.6523 41.3887C28.9405 42.2446 26.7472 42.6726 24.0725 42.6726ZM4.17254 61.1282C3.74458 61.2352 3.37012 61.1817 3.04916 60.9677C2.72819 60.7537 2.51421 60.4862 2.40722 60.1653C1.87228 57.7045 1.71179 55.4578 1.92577 53.425C1.92577 53.211 1.97927 53.104 2.08625 53.104C3.15614 53.104 4.06555 53.4785 4.81447 54.2274C5.02845 54.5484 5.26918 54.7088 5.53665 54.7088C5.80412 54.7088 6.09834 54.6018 6.41931 54.3879C7.59619 53.6389 8.82656 52.997 10.1104 52.4621C10.2174 54.9228 10.6989 57.2766 11.5548 59.5233C9.09403 59.9513 6.63329 60.4862 4.17254 61.1282ZM15.2459 60.9677C14.8179 60.9677 14.4167 60.8607 14.0423 60.6467C13.6678 60.4327 13.4271 60.1118 13.3201 59.6838C12.9991 59.0419 12.7317 58.3465 12.5177 57.5975C13.3736 56.3137 14.711 55.7787 16.5298 55.9927C16.7437 56.6346 16.9845 57.3033 17.2519 57.9987C17.5194 58.6942 17.4392 59.3629 17.0112 60.0048C16.5833 60.6467 15.9948 60.9677 15.2459 60.9677ZM32.8991 60.9677C32.1502 60.9677 31.5617 60.6467 31.1338 60.0048C30.7058 59.3629 30.6256 58.6942 30.893 57.9987C31.1605 57.3033 31.4012 56.6346 31.6152 55.9927C33.434 55.7787 34.7714 56.3137 35.6273 57.5975C35.4133 58.3465 35.1459 59.0419 34.8249 59.6838C34.7179 60.1118 34.4772 60.4327 34.1027 60.6467C33.7283 60.8607 33.327 60.9677 32.8991 60.9677ZM19.579 31.1178C19.365 31.1178 19.1777 31.198 19.0173 31.3585C18.8568 31.519 18.7765 31.6527 18.7765 31.7597V32.2411C18.7765 32.4551 18.8568 32.6156 19.0173 32.7226C19.1777 32.8296 19.365 32.8831 19.579 32.8831C19.7929 32.8831 19.9534 32.8296 20.0604 32.7226C20.1674 32.6156 20.2209 32.4551 20.2209 32.2411V31.7597C20.2209 31.6527 20.1674 31.519 20.0604 31.3585C19.9534 31.198 19.7929 31.1178 19.579 31.1178ZM28.566 31.1178C28.3521 31.1178 28.1916 31.198 28.0846 31.3585C27.9776 31.519 27.9241 31.6527 27.9241 31.7597V32.2411C27.9241 32.4551 27.9776 32.6156 28.0846 32.7226C28.1916 32.8296 28.3521 32.8831 28.566 32.8831C28.78 32.8831 28.9672 32.8296 29.1277 32.7226C29.2882 32.6156 29.3685 32.4551 29.3685 32.2411V31.7597C29.3685 31.6527 29.2882 31.519 29.1277 31.3585C28.9672 31.198 28.78 31.1178 28.566 31.1178ZM25.9983 35.7718C25.4634 36.3067 24.8214 36.5742 24.0725 36.5742C23.3236 36.5742 22.6816 36.3067 22.1467 35.7718C22.0397 35.6648 21.8792 35.6113 21.6652 35.6113C21.4513 35.6113 21.2908 35.6648 21.1838 35.7718C21.0768 35.8788 21.0233 36.0393 21.0233 36.2532C21.0233 36.4672 21.0768 36.6277 21.1838 36.7347C21.9327 37.5906 22.8956 38.0186 24.0725 38.0186C25.2494 38.0186 26.2123 37.5906 26.9612 36.7347C27.0682 36.6277 27.1217 36.4672 27.1217 36.2532C27.1217 36.0393 27.0682 35.8788 26.9612 35.7718C26.8542 35.6648 26.6937 35.6113 26.4797 35.6113C26.2658 35.6113 26.1053 35.6648 25.9983 35.7718Z" fill="#ABABAB"/>
</svg>
